<?xml version="1.0" encoding="UTF-8" standalone="no"?>
<svg
   version="1.1"
   width="700"
   height="700"
   viewBox="235 314.1228 700 700.00002"
   id="svg1"
   xmlns="http://www.w3.org/2000/svg"
   xmlns:svg="http://www.w3.org/2000/svg">
  <defs
     id="defs1" />
  <g
     fill="none"
     fill-rule="none"
     stroke="none"
     stroke-width="none"
     stroke-linecap="none"
     stroke-linejoin="none"
     stroke-miterlimit="10"
     stroke-dasharray="none"
     stroke-dashoffset="0"
     font-family="none"
     font-weight="none"
     font-size="none"
     text-anchor="none"
     id="element-13"
     transform="translate(5.220529,-596.88048)">
    <g
       id="stage">
      <g
         id="layer1 1">
        <path
           d=""
           id="Path 1"
           fill="none"
           fill-rule="nonzero"
           stroke="#000000"
           stroke-width="1"
           stroke-linecap="round"
           stroke-linejoin="round" />
        <path
           d=""
           id="element-14"
           fill="none"
           fill-rule="nonzero"
           stroke="#000000"
           stroke-width="1"
           stroke-linecap="round"
           stroke-linejoin="round" />
        <path
           d=""
           id="element-15"
           fill="none"
           fill-rule="nonzero"
           stroke="#000000"
           stroke-width="1"
           stroke-linecap="round"
           stroke-linejoin="round" />
        <path
           d=""
           id="element-16"
           fill="none"
           fill-rule="nonzero"
           stroke="#000000"
           stroke-width="1"
           stroke-linecap="round"
           stroke-linejoin="round" />
        <path
           d=""
           id="element-17"
           fill="none"
           fill-rule="nonzero"
           stroke="#000000"
           stroke-width="1"
           stroke-linecap="round"
           stroke-linejoin="round" />
        <path
           d="M 615.28259,1751.4246"
           id="element-18"
           fill="none"
           fill-rule="nonzero"
           stroke="#000000"
           stroke-width="1"
           stroke-linecap="round"
           stroke-linejoin="round" />
        <path
           d="m 566.59708,1400.9875 1.3483,2.5149"
           id="item146487 1"
           fill="none"
           fill-rule="nonzero"
           stroke="none"
           stroke-width="1"
           stroke-linecap="butt"
           stroke-linejoin="miter" />
        <path
           d="m 578.78225,522.56922 c -0.12728,0.21696 -0.26943,0.49854 -0.42662,0.8445"
           id="item396977 1"
           fill="none"
           fill-rule="nonzero"
           stroke="none"
           stroke-width="1"
           stroke-linecap="butt"
           stroke-linejoin="miter" />
        <path
           d="m 579.58719,524.41225 c 0.11303,-2.36057 -0.14764,-2.96346 -0.80494,-1.84303"
           id="item404063 1"
           fill="none"
           fill-rule="nonzero"
           stroke="none"
           stroke-width="1"
           stroke-linecap="butt"
           stroke-linejoin="miter" />
        <path
           d="m 579.63394,544.06023 c 2.37465,0.27445 4.14073,0.47716 4.30736,0.49438 0.22534,0.0227 -0.38665,-1.87041 -1.35954,-4.20653 -2.19309,-5.26635 -3.3317,-10.95183 -3.0392,-15.18164 0.0185,-0.26871 0.0334,-0.52009 0.0446,-0.75419"
           id="item409435 1"
           fill="none"
           fill-rule="nonzero"
           stroke="none"
           stroke-width="1"
           stroke-linecap="butt"
           stroke-linejoin="miter" />
        <path
           d="m 477.64448,530.22662 -0.44852,-1.00874 c -4.96178,-9.22302 -4.23205,-12.35947 -3.63702,-24.20622 0.5624,-11.20608 -0.28246,-10.68813 10.48595,-6.42937 15.7829,6.24183 26.13076,12.58246 29.81459,18.2692 2.02111,3.11966 2.18243,2.26249 0.4921,-2.61115 -3.31162,-9.54714 -3.37439,-22.57706 -0.15692,-32.57858 1.00303,-3.11839 5.09484,-12.89965 6.00685,-14.36035 0.15315,-0.24545 4.52616,3.08315 10.51545,8.00398 5.94723,4.88622 11.04458,10.32878 14.07123,15.02431 l 2.47179,3.83459 0.3741,-5.46459 c 0.82728,-12.06073 5.49154,-22.41594 15.99819,-35.51572 1.87424,-2.33612 3.58716,-4.238 3.80748,-4.22604 0.21969,0.012 2.41279,2.63128 4.87265,5.82142"
           id="item97240 1"
           fill="none"
           fill-rule="nonzero"
           stroke="none"
           stroke-width="1"
           stroke-linecap="butt"
           stroke-linejoin="miter" />
        <path
           d="m 496.83893,773.63047 c -0.13274,-0.67808 -0.63092,-2.90027 -1.22068,-5.43654 -0.69044,-2.96925 -1.25535,-6.37839 -1.25535,-7.57666 0,-1.19764 -0.21152,-2.17186 -0.47075,-2.16431 -0.25923,0.007 -1.59241,1.5828 -2.96388,3.50167"
           id="item308643 1"
           fill="none"
           fill-rule="nonzero"
           stroke="none"
           stroke-width="1"
           stroke-linecap="butt"
           stroke-linejoin="miter" />
        <path
           d="m 496.86712,773.85576 c 0.004,-0.009 0.006,-0.0154 0.006,-0.0191 0,-0.13468 -0.56491,-2.67345 -1.25535,-5.64269 -0.69044,-2.96925 -1.25535,-6.37839 -1.25535,-7.57666 0,-1.19764 -0.21152,-2.17186 -0.47075,-2.16431 -0.25923,0.007 -1.59241,1.5828 -2.96388,3.50167"
           id="item328998 1"
           fill="none"
           fill-rule="nonzero"
           stroke="none"
           stroke-width="1"
           stroke-linecap="butt"
           stroke-linejoin="miter" />
        <path
           d="m 496.09547,774.90428 c 0.19211,-0.24795 0.35227,-0.45772 0.47635,-0.62414"
           id="item335182 1"
           fill="none"
           fill-rule="nonzero"
           stroke="none"
           stroke-width="1"
           stroke-linecap="butt"
           stroke-linejoin="miter" />
        <path
           d="m 490.5616,781.77865 c 0.064,-0.0781 0.12804,-0.15627 0.19216,-0.23446 2.2873,-2.78943 4.29176,-5.28481 5.34171,-6.63991"
           id="item359238 1"
           fill="none"
           fill-rule="nonzero"
           stroke="none"
           stroke-width="1"
           stroke-linecap="butt"
           stroke-linejoin="miter" />
        <path
           d=""
           id="element-19"
           fill="none"
           fill-rule="nonzero"
           stroke="none"
           stroke-width="1"
           stroke-linecap="butt"
           stroke-linejoin="miter" />
        <path
           d="m 563.57417,323.11233 c -1.70226,0.99311 -2.37136,1.07114 -4.14454,0.4846 -1.96149,-0.64885 -3.55829,-2.72883 -3.55202,-4.6263 10e-4,-0.41663 0.56177,-1.67783 1.24594,-2.80246 1.02814,-1.69104 1.6307,-2.04537 3.47858,-2.04537 1.54973,0 2.71783,0.4846 3.8125,1.58217 2.32365,2.32983 1.93136,5.79058 -0.84046,7.40736 z"
           id="element-20"
           fill-opacity="0"
           fill="#bd0a41"
           fill-rule="nonzero"
           stroke="none"
           stroke-width="1"
           stroke-linecap="butt"
           stroke-linejoin="miter" />
        <path
           d="m 584.33559,1244.9808 c 3.72297,-2.6087 9.99453,-1.8227 9.99453,1.2513 0,1.2767 0.48145,1.1499 2.36547,-0.6206 3.30192,-3.1004 8.17091,-2.9349 10.76842,0.3681 1.18994,1.5129 2.30826,2.1508 2.68958,1.5333 0.35987,-0.5817 2.21835,-1.057 4.13098,-1.057 3.56359,0 7.64643,3.1159 7.64643,5.8351 0,0.9068 0.78001,1.1644 2.33992,0.7728 5.8892,-1.4781 11.41446,4.1361 9.09088,9.2371 -0.91181,2.0016 -1.92285,2.5557 -4.66248,2.5557 -2.77029,0 -5.1655,1.3474 -11.52186,6.4821 -8.25264,6.6672 -11.50132,9.8883 -9.93834,9.8546 0.48962,-0.01 4.57156,-1.9802 9.06943,-4.3773 6.21127,-3.309 8.52974,-5.1491 9.63988,-7.6475 1.00286,-2.2541 2.16522,-3.2897 3.69652,-3.2897 3.40511,0 7.61987,3.813 7.61987,6.8942 0,5.0264 -5.33613,8.2854 -8.10437,4.9508 -1.01818,-1.2267 -1.84826,-1.0744 -5.49256,1.01 -2.36047,1.3504 -6.5926,3.1802 -9.40376,4.0655 -2.81117,0.8852 -7.00549,2.2847 -9.32089,3.1107 l -4.20862,1.5017 3.41533,6.4331 c 4.64409,8.7455 6.90331,18.8014 6.13657,27.3188 -0.33228,3.7006 -2.40849,13.1309 -4.61344,20.9562 -2.20393,7.8254 -4.57564,17.1401 -5.2687,20.6986 -1.63348,8.3836 -0.67262,25.6484 2.03024,36.4648 2.47082,9.8883 10.02428,30.1853 17.69011,47.5349 6.90842,15.6334 13.28215,32.8666 16.01259,43.2905 6.24396,23.8391 2.46517,59.3324 -6.97026,82.4947 -0.17057,0.4189 -7.07254,0.9365 -12.24082,3.374 -9.06174,4.2738 -20.76457,2.8239 -30.97555,2.3586 -11.54518,-0.5262 -22.71755,-0.9464 -33.54003,-2.7276 -5.41005,-0.8905 -10.65185,-2.102 -15.85428,-3.8467 -2.21014,-0.7412 -4.37141,-1.564 -6.53407,-2.5019 0.0146,-0.1859 0.0225,-0.2822 0.0225,-0.2822 l -2.53723,-4.6001 c -10.22861,-18.5478 -12.77709,-51.2272 -5.9781,-76.6691 1.72861,-6.4658 6.18153,-19.9902 9.89644,-30.0533 3.71491,-10.0641 8.83841,-25.4746 11.38382,-34.2456 10.67226,-36.7663 15.80201,-49.5221 30.00107,-74.601 5.48234,-9.6818 6.65276,-12.5932 6.98913,-17.3784 0.37621,-5.3597 0.18504,-5.9566 -2.82036,-8.8159 -3.13833,-2.986 -3.52885,-3.0759 -14.89836,-3.4102 -12.65345,-0.371 -18.43118,0.8372 -26.76669,5.6019 l -4.32522,2.4719 0.58578,-3.354 c 1.56206,-8.9253 2.50861,-10.2859 12.37952,-17.7933 1.62836,-1.239 3.66268,-4.4141 4.73196,-7.3889 4.40184,-12.2425 13.16669,-18.5406 28.77139,-20.6771 4.49482,-0.6154 8.51329,-1.654 8.92935,-2.3072 0.91079,-1.4322 1.26759,-7.3552 0.9016,-14.9893 -0.21875,-4.5736 -0.73188,-5.9721 -2.74781,-7.4963 -3.10666,-2.3501 -3.2027,-6.1917 -0.20547,-8.2904 z m 13.19426,7.6806 c -4.25358,-2.2776 -5.24418,-0.868 -5.24418,7.4645 0,2.9277 -0.70123,8.0155 -1.55787,11.3062 -0.85778,3.2905 -1.38009,6.1621 -1.16133,6.3808 1.1132,1.1122 7.81411,-13.8699 9.30659,-20.807 0.56636,-2.6344 0.31185,-3.4593 -1.3432,-4.3446 z m 12.55118,2.2653 c -0.59088,-0.9375 -1.53539,-1.8575 -2.09767,-2.0456 -1.26657,-0.4222 -4.45292,2.9769 -4.45292,4.7494 0,0.7166 -1.81034,5.1655 -4.02256,9.8873 -3.28864,7.0168 -3.66383,8.3927 -2.05476,7.532 2.06497,-1.1062 8.53077,-9.3721 11.78966,-15.0732 1.43118,-2.5035 1.64278,-3.7762 0.83825,-5.0499 z m 11.1284,4.8343 c -0.35067,-1.3382 -1.39225,-2.0598 -2.97577,-2.0598 -1.33923,0 -2.43608,0.3649 -2.43608,0.8116 0,0.4468 -2.94308,4.4724 -6.53936,8.9447 -3.5964,4.4734 -6.39735,8.2843 -6.22354,8.4683 0.72065,0.7678 5.87491,-2.7478 12.08608,-8.2424 5.07037,-4.4867 6.50053,-6.3473 6.08856,-7.9225 z"
           id="CompoundPath 1"
           fill="#2b3c20"
           fill-rule="evenodd"
           stroke="none"
           stroke-width="0"
           stroke-linecap="butt"
           stroke-linejoin="miter" />
        <path
           d="m 557.17813,929.97213 c 7.7437,-0.78952 38.69681,-0.40245 49.31772,0.6164 17.03946,1.63367 37.49938,5.41351 55.72163,10.29461 58.93675,15.78508 123.00153,55.43923 162.90956,100.83396 25.87046,29.428 48.13577,65.6316 62.99361,102.43 16.72854,41.4302 24.71157,85.4813 23.56805,130.0488 -1.15047,44.8191 -10.22849,87.0465 -27.21256,126.5828 -15.87447,36.9524 -37.82801,68.8867 -68.28717,99.3335 -16.5255,16.5185 -33.02165,29.8997 -52.90295,42.9145 -44.85443,29.3626 -98.55459,48.1435 -152.24168,53.2454 -18.79623,1.786 -58.29876,1.212 -75.08277,-1.0912 -63.18979,-8.6701 -126.85759,-36.0273 -172.39771,-74.0747 -10.51162,-8.7824 -27.25868,-25.2647 -37.81337,-37.2162 -8.58628,-9.7237 -23.01862,-28.4368 -29.01629,-37.6241 -27.24478,-41.7357 -43.7764,-88.2793 -50.45661,-142.0587 -1.35052,-10.8725 -1.83762,-46.085 -0.81415,-58.9029 4.64556,-58.2111 22.12981,-110.6269 53.07837,-159.1274 20.02136,-31.3748 51.74628,-65.6777 82.10077,-88.77023 34.84464,-26.50908 79.81301,-47.68858 124.59288,-58.6812 18.58153,-4.56092 30.48833,-6.56786 51.94255,-8.75328 z m 12.2559,30.74859 c -3.04033,-3.86606 -9.4235,-2.03149 -10.39001,2.98651 -0.68486,3.55281 1.98387,6.52858 5.85531,6.52858 5.46824,0 7.93987,-5.18657 4.53479,-9.5151 z m 27.45502,-0.093 c -1.3421,-1.3421 -2.77413,-1.9346 -4.6741,-1.9346 -2.26545,0 -3.00421,0.43319 -4.2647,2.5009 -0.83879,1.37517 -1.52595,2.91724 -1.52753,3.42666 -0.008,2.32011 1.94998,4.86332 4.35474,5.65673 2.17394,0.71718 2.9942,0.62177 5.08117,-0.5925 3.39823,-1.97693 3.87922,-6.20847 1.03043,-9.05726 z m -71.26144,7.29949 c -1.74445,-1.74445 -4.06918,-2.00379 -5.17268,-0.57713 -3.56364,4.60556 1.57449,10.36473 5.43824,6.09539 1.69221,-1.86995 1.60681,-3.64598 -0.26546,-5.51825 z m 110.94246,-0.26536 c -1.66674,-1.50901 -4.25081,-1.65989 -5.32968,-0.31168 -1.7376,2.17153 -1.82068,4.33158 -0.22776,5.9245 1.95378,1.95378 4.02148,2.01612 5.69137,0.1708 1.67063,-1.84605 1.61598,-4.20005 -0.13394,-5.78371 z m 9.63061,10.40308 c -2.34863,-2.20617 -3.91913,-2.11078 -5.85837,0.35474 -1.99379,2.53479 -2.00537,3.71824 -0.0561,5.66747 2.00305,2.00305 4.1731,1.95155 6.12614,-0.14542 2.04148,-2.1908 1.98221,-3.81447 -0.21165,-5.8768 z m -157.50755,0.25303 c -1.15037,-1.3859 -4.71402,-1.52364 -6.00453,-0.23313 -2.25387,2.25397 -0.26777,7.54132 2.83184,7.54132 3.49047,0 5.46352,-4.54702 3.17269,-7.30809 z m 22.4676,-0.23303 c -1.3797,1.3798 -1.11424,4.82184 0.48405,6.26776 1.95915,1.77372 4.44087,1.58829 5.8591,-0.43709 1.57745,-2.25091 1.51364,-3.92155 -0.20933,-5.48056 z m 57.11607,0.15617 c -3.03653,-1.26818 -2.43551,-1.27282 -5.45898,0.0423 -4.57398,1.98916 -5.73908,8.25071 -2.07308,11.13414 5.54901,4.36557 13.19795,-0.7572 11.0141,-7.3758 -0.64409,-1.95072 -1.62978,-3.02653 -3.48205,-3.80067 z m 106.76926,0.19403 c -2.7457,-2.48479 -7.05727,-0.59565 -7.05727,3.09266 0,1.93303 2.30695,4.09845 4.36622,4.09845 3.52521,0 5.3243,-4.80803 2.69105,-7.1912 z m -77.39138,2.80563 c -3.08266,-3.66368 -7.76824,-3.87069 -10.45003,-0.46098 -3.51131,4.4632 -0.45477,10.58323 5.28587,10.58323 5.90765,0 8.84183,-5.75139 5.16426,-10.12224 z m -59.32066,5.70452 c 0.3063,-3.26503 0.41254,-5.93608 0.23628,-5.93608 -1.49669,0 -9.40664,4.97178 -12.73864,8.00757 -14.37389,13.09183 -20.65007,35.01233 -15.11339,52.78443 l 1.3182,4.2323 0.58788,-3.2042 c 0.66725,-3.6369 2.05158,-5.9877 9.89837,-16.8164 9.4574,-13.0503 14.55311,-25.6419 15.81129,-39.06772 z m 87.80205,-2.38188 c -1.79762,-1.0535 -4.19543,-2.14847 -5.32894,-2.43245 l -2.0615,-0.51785 0.45404,4.89259 c 1.28893,13.88591 5.86142,24.79071 18.02367,42.98301 5.67368,8.4878 6.91028,10.9594 6.91028,13.8129 0,3.7614 1.18279,2.7203 2.56712,-2.2586 0.84648,-3.0449 1.28051,-7.5481 1.28051,-13.2895 0,-10.2315 -1.65369,-17.2588 -6.01611,-25.5657 -3.2266,-6.14312 -10.99252,-14.79016 -15.82898,-17.62431 z m -122.50814,2.66105 c -1.18575,-1.40971 -2.7256,-2.3678 -3.80447,-2.3678 -2.51785,0 -5.65599,2.98419 -6.21774,5.91301 -0.37855,1.97388 -0.0861,2.83341 1.5052,4.42476 3.11499,3.11498 7.45046,2.57944 9.38349,-1.15889 1.56134,-3.01884 1.42519,-4.08771 -0.86648,-6.81099 z m 148.99972,1.78844 c -1.64368,4.32315 1.07961,8.15614 5.79445,8.15614 2.80267,0 4.73875,-1.833 5.39359,-5.10498 0.36012,-1.8015 0.008,-2.84962 -1.59829,-4.75875 z m -70.68099,4.88556 c -1.52058,-1.58681 -3.00504,-2.88575 -3.29819,-2.88575 -1.03274,0 -5.52901,5.706 -6.93418,8.7995 -1.74445,3.8407 -1.83762,8.0291 -0.2624,11.8098 1.26198,3.0296 6.23535,8.6325 7.66284,8.6325 0.46561,0 1.91534,-1.1257 3.22048,-2.5009 7.06107,-7.4404 6.91797,-16.2291 -0.38864,-23.85507 z m -104.87327,1.49686 c -5.51984,-2.65872 -8.39011,-3.32978 -8.39011,-1.96229 0,1.94535 2.96346,11.42658 4.87953,15.61278 3.37433,7.3705 8.17606,13.5035 18.95092,24.2037 10.64778,10.5747 15.26344,16.6547 22.39916,29.5072 1.81688,3.2727 3.41591,5.8375 3.55364,5.6998 0.13782,-0.137 -1.68443,-4.8926 -4.04918,-10.567 -2.36466,-5.6744 -6.18385,-15.1649 -8.48699,-21.0902 -2.30324,-5.9254 -4.93418,-12.6779 -5.84531,-15.0057 -4.01611,-10.2562 -14.52384,-22.31069 -23.01166,-26.39839 z m 210.45669,3.5052 c 1.95999,-6.81257 1.90839,-6.91334 -2.6541,-5.23271 -5.68294,2.09383 -9.36505,4.46162 -14.55857,9.3604 -8.22922,7.7629 -11.42812,13.3658 -17.43654,30.5353 -1.45056,4.1462 -4.05769,10.5524 -5.79298,14.2361 -3.39285,7.2019 -10.65018,24.0713 -10.64861,24.7531 7.4e-4,0.2278 2.11003,-3.0488 4.6879,-7.2812 11.2689,-18.5031 14.04609,-22.1968 24.87782,-33.0894 13.92828,-14.0068 17.62586,-19.7228 21.52499,-33.28168 z m -248.21784,3.34349 c -2.15236,-1.5075 -2.20617,-1.5075 -4.31621,-0.029 -3.79529,2.6579 -0.81804,9.0972 3.50669,7.5851 1.68443,-0.5886 2.13846,-1.2773 2.32778,-3.5297 0.18395,-2.1985 -0.14162,-3.0619 -1.51826,-4.0261 z m 282.37134,-0.029 c -2.69096,-1.8853 -4.25387,-1.4321 -5.91218,1.7168 -1.23512,2.3454 -0.3879,4.6979 2.02149,5.6144 4.52016,1.7183 7.85141,-4.5572 3.89069,-7.3313 z m -302.51042,7.3273 c -3.40739,0.085 -4.22849,0.5379 -5.52669,3.0488 -1.5744,3.0435 -1.4413,4.1077 0.85417,6.8349 2.6441,3.1427 5.77445,3.1843 8.84026,0.1185 2.77181,-2.7718 2.83415,-4.6333 0.25703,-7.6952 z m 318.07236,-0.061 c -4.29546,0 -7.28197,4.6364 -5.67831,8.8149 0.53869,1.4028 4.18237,3.4974 6.08381,3.4974 1.99537,0 5.75065,-4.2554 5.75065,-6.5171 0,-1.1158 -0.84333,-2.8611 -1.88913,-3.9061 z m -121.57393,18.2993 c -2.16625,-2.4202 -4.96576,-5.132 -6.22005,-6.0254 l -2.28166,-1.6244 -1.05349,2.5632 c -1.91302,4.6509 -2.98263,13.6697 -2.43014,20.4792 0.79489,9.8029 3.64525,18.4831 9.66209,29.4295 6.33853,11.5304 6.8095,12.6847 7.97683,19.5519 l 0.90723,5.3359 2.07696,-5.3359 c 3.37971,-8.6863 4.56638,-14.0953 4.96957,-22.6508 0.72875,-15.4743 -4.52016,-31.5695 -13.60744,-41.7234 z m 103.8312,-6.3941 c -2.02315,-1.0466 -2.09696,-1.0088 -2.55869,1.2997 -1.4074,7.0358 0.60946,17.2488 5.58365,28.2768 4.08613,9.0588 4.08381,9.0519 4.6402,14.6932 l 0.49247,5.0019 1.67526,-5.0019 c 5.53289,-16.5207 3.8191,-30.3875 -4.95493,-40.0996 z m -279.44873,7.9099 c 0.38707,-9.7821 -0.17775,-10.2862 -5.52743,-4.9365 -6.86489,6.8649 -9.71211,14.7294 -9.69673,26.7862 0.009,7.2674 1.10498,13.0934 3.22196,17.1341 l 1.15352,2.2017 0.42245,-4.6633 c 0.26934,-2.9681 1.45676,-6.9911 3.26818,-11.0696 5.83605,-13.1449 6.80793,-16.6 7.15804,-25.4526 z m 112.289,-3.8475 c -0.79414,-2.5764 -1.80605,-4.4248 -2.42087,-4.4248 -0.58093,0 -3.51975,2.6379 -6.5309,5.8614 -3.94072,4.2193 -6.44004,7.8291 -8.92408,12.8895 -4.92028,10.0191 -6.08686,15.1403 -6.0738,26.6507 0.0123,10.5702 0.96189,15.3205 5.15425,25.779 l 2.46784,6.1561 0.50016,-5.7714 c 0.55944,-6.4401 1.59756,-9.2842 6.04,-16.5423 4.55638,-7.4444 8.04453,-14.7949 9.67673,-20.3946 2.01453,-6.9073 2.07613,-23.8297 0.11077,-30.2036 z m 21.72755,-0.2316 c -2.25629,-2.4017 -3.31431,-2.3732 -5.29356,0.1431 -2.00768,2.5517 -1.99768,2.7126 0.3001,4.871 1.823,1.713 1.97073,1.7307 3.88912,0.4741 2.83878,-1.8607 3.13425,-3.3275 1.10425,-5.4883 z m 123.61636,8.8886 c 0.25628,-4.0207 0.17237,-8.0338 -0.18775,-8.9179 l -0.65336,-1.6076 -3.84762,1.5375 c -6.02453,2.407 -15.98209,9.3127 -20.44149,14.1761 -6.55479,7.1489 -12.14687,16.5055 -17.77516,29.745 -2.89723,6.8156 -5.95915,13.3304 -6.8033,14.4777 -2.1532,2.9235 -1.94387,3.1543 1.34969,1.4875 1.58755,-0.8033 5.37201,-2.3524 8.41086,-3.442 26.57837,-9.5359 38.42903,-23.6135 39.94804,-47.4563 z m -229.34753,-7.0388 c -8.91639,-4.3223 -8.89027,-4.3339 -8.89027,3.8376 0,15.8806 6.76487,30.0637 18.57311,38.94 5.78751,4.3501 10.84784,6.9865 21.58806,11.2458 4.36316,1.7299 8.74402,3.6683 9.73443,4.3078 l 1.80141,1.1619 -2.01611,-3.4397 c -1.10813,-1.8923 -4.01768,-8.4132 -6.46476,-14.4924 -8.81404,-21.892 -18.87015,-34.0673 -34.32596,-41.5609 z m 119.99104,-1.7137 c -1.85995,-1.86 -4.1216,-1.5391 -5.15583,0.7325 -0.97957,2.1493 -0.36475,3.8114 1.94998,5.2713 3.01041,1.8992 5.8291,-3.3806 3.20585,-6.0038 z m -194.15889,2.3309 c -3.16278,-2.8626 -7.05727,-0.9181 -7.05727,3.5236 0,2.3994 1.36507,3.6676 3.94683,3.6676 4.0715,0 6.03686,-4.5425 3.11036,-7.1912 z m 371.54616,-1.2735 c -1.60209,0 -2.66253,0.594 -3.59134,2.0123 -1.18343,1.8053 -1.20196,2.2216 -0.18079,4.04 0.88334,1.5736 1.7275,2.0277 3.77214,2.0277 2.04454,0 2.8887,-0.4541 3.77214,-2.0277 1.02117,-1.8184 1.00274,-2.2347 -0.18079,-4.04 z m -358.21121,0.7694 c -1.87217,0 -3.01958,0.5572 -4.17616,2.0277 -2.62177,3.3328 -1.82605,6.5771 2.13004,8.684 2.35705,1.2559 5.7398,-0.068 6.94797,-2.7202 1.21734,-2.6709 1.09888,-3.6444 -0.7257,-5.9638 z m 345.65727,1.673 c -2.3339,-2.1915 -4.77025,-2.1177 -7.1034,0.2163 -3.666,3.6651 -1.41129,8.884 3.83836,8.884 4.73708,0 6.80793,-5.7714 3.26503,-9.1003 z m -353.51017,18.3415 c -5.20815,-1.6083 -17.15644,-2.1931 -17.15644,-0.8396 0,0.3887 1.92766,3.1259 4.28313,6.0831 7.42201,9.315 16.34303,15.3026 29.30406,19.6674 4.19163,1.4121 8.73791,3.1442 10.10307,3.8499 1.36433,0.7057 2.4809,1.1373 2.4809,0.9588 0,-0.7595 -9.72064,-15.7705 -12.14613,-18.757 -3.57523,-4.401 -10.7756,-9.0804 -16.86867,-10.9626 z m 373.75936,-1.0943 c -7.8e-4,-1.0572 -12.92956,-0.2938 -16.92943,0.9997 -10.29155,3.3275 -15.52045,7.7868 -23.44263,19.9952 -2.73866,4.22 -5.33736,7.8945 -5.77445,8.1646 -0.43634,0.2701 -0.79414,0.8373 -0.79414,1.2605 0,0.4232 0.2725,0.6009 0.60566,0.3955 0.33242,-0.2063 4.87489,-1.6268 10.09297,-3.1581 11.58206,-3.3975 16.89479,-6.0077 23.31723,-11.4567 4.06753,-3.4512 12.92446,-14.5527 12.9248,-16.2006 z m -322.34865,16.8556 c -1.67675,-3.3898 -3.91228,-6.9742 -4.96725,-7.9653 l -1.91839,-1.8023 -1.12045,2.1939 c -0.61631,1.2066 -1.509,4.0292 -1.98379,6.2716 -2.80877,13.2689 1.74287,26.5338 13.05717,38.0535 3.22196,3.2797 6.24312,5.9638 6.71484,5.9638 0.53796,0 0.31168,-1.2698 -0.60714,-3.4152 -1.69453,-3.9522 -3.09423,-10.8818 -3.10887,-15.3873 -0.02,-6.0699 -2.94577,-17.6035 -6.06612,-23.9128 z m 264.3285,2.5402 c -0.6303,-3.2621 -1.78299,-7.3913 -2.56175,-9.1766 l -1.41518,-3.245 -2.46709,2.9926 c -1.49205,1.8107 -3.36589,5.7407 -4.74254,9.9461 -3.26123,9.9676 -3.73064,12.1284 -4.6741,21.5281 -0.46479,4.6301 -1.53596,10.4707 -2.38086,12.9794 -0.8449,2.508 -1.37896,4.718 -1.18658,4.9111 0.67022,0.6702 11.21806,-9.9121 13.81899,-13.8652 5.59365,-8.5 7.38969,-16.8501 5.60902,-26.0705 z m -130.68615,4.0421 c -1.32589,-2.7702 -3.15426,-7.238 -4.06381,-9.9298 l -1.65442,-4.8926 -1.75297,5.2773 c -3.60208,10.8456 -7.55891,17.3104 -17.555,28.6792 -7.11497,8.093 -12.43001,17.6858 -14.24532,25.7112 l -1.01348,4.4794 -4.58787,-6.1624 c -3.5467,-4.7648 -19.11948,-21.6504 -19.9667,-21.6504 -0.33936,0 1.22428,8.9564 1.96378,11.2542 1.16426,3.6152 4.79719,8.3385 14.50541,18.8571 4.83183,5.2358 9.76064,10.861 10.9526,12.5016 2.38937,3.2881 2.57638,3.1096 3.31051,-3.1604 0.55564,-4.7418 3.66831,-14.3947 6.39474,-19.8298 2.59167,-5.1673 5.47583,-9.3104 12.85478,-18.4684 3.40971,-4.2323 6.9226,-8.7002 7.8052,-9.9276 l 1.60598,-2.2331 2.46552,3.5837 c 1.3559,1.9707 4.74635,6.2653 7.53511,9.5435 6.56397,7.716 8.17605,10.3331 12.15067,19.7289 4.10845,9.7122 4.96798,12.3947 6.07612,18.971 l 0.88491,5.2527 4.03463,-4.761 c 2.21859,-2.618 7.51057,-8.5694 11.75907,-13.225 9.05338,-9.9207 12.77708,-16.5339 13.54121,-24.0483 l 0.48942,-4.811 -8.62092,8.6586 c -4.74171,4.7619 -10.41854,11.3559 -12.61471,14.6533 -3.67136,5.512 -4.01231,5.8222 -4.23312,3.8476 -0.37706,-3.3643 -3.23659,-12.6054 -4.9503,-15.999 -1.78288,-3.529 -4.46931,-7.1365 -10.60239,-14.2361 -6.7633,-7.8298 -9.86447,-12.223 -12.46855,-17.6643 z m 210.52748,-6.9663 c -1.97388,0.7965 -4.12234,3.6775 -4.12234,5.5275 0,5.6498 6.33621,8.2123 10.58091,4.2793 2.94039,-2.7241 2.2209,-7.5706 -1.40202,-9.4443 z m -432.27438,1.8083 c -4.35168,-3.7437 -9.70442,-1.3729 -9.70442,4.2978 0,2.3486 0.45172,3.3782 2.02769,4.6171 2.64873,2.0838 5.09035,2.0184 7.67673,-0.207 1.49678,-1.2874 2.09466,-2.5302 2.09466,-4.3539 0,-1.8238 -0.59797,-3.0665 -2.09466,-4.3539 z m 27.23237,9.7406 c -1.92376,-1.9238 -2.3878,-1.9185 -4.89796,0.056 -2.36474,1.8599 -2.62714,4.5494 -0.6202,6.3654 4.36167,3.947 9.6883,-2.2515 5.51825,-6.4216 z m 382.10122,0.3501 c -2.28934,-2.29 -3.04422,-2.3424 -5.03652,-0.3501 -1.92071,1.9207 -1.97851,4.7503 -0.13162,6.4216 1.95915,1.7737 4.44087,1.5883 5.8591,-0.4371 1.64367,-2.3462 1.51058,-3.4336 -0.69106,-5.6344 z m -427.35264,0.948 c -2.72403,-2.6102 -5.76825,-2.6756 -8.26461,-0.1785 -4.78951,4.7888 0.18311,12.5363 6.60861,10.2962 4.20312,-1.4651 5.08266,-6.8348 1.656,-10.1176 z m 466.18485,-0.1499 c -2.13541,2.2724 -2.33473,5.6129 -0.50173,8.4101 1.07192,1.636 1.89607,1.9846 4.68947,1.9846 2.7457,0 3.69295,-0.3855 4.9842,-2.0277 2.21006,-2.8095 2.00074,-5.3798 -0.6541,-8.0353 z m -386.0926,9.295 c -6.31241,-1.6353 -20.98944,-1.4291 -20.98944,0.2955 0,0.3455 2.21627,2.701 4.92418,5.2342 8.11539,7.5914 13.73822,9.7791 32.97932,12.8318 7.23576,1.1481 12.35926,2.6279 18.46382,5.3343 1.58755,0.7041 2.88575,1.1419 2.88575,0.9742 0,-0.1678 -3.02958,-2.4979 -6.73327,-5.1773 -3.70295,-2.6795 -9.28883,-6.8934 -12.41233,-9.3635 -6.68558,-5.2874 -12.6701,-8.4578 -19.11791,-10.1292 z m 323.26276,-0.7195 c -11.00798,-1.509 -23.68808,1.7376 -32.18591,8.2401 -2.29861,1.7591 -7.18352,5.4488 -10.85563,8.1999 -3.67137,2.7511 -7.75824,5.9561 -9.08107,7.1219 l -2.40549,2.1208 5.00189,-2.2785 c 2.75098,-1.2535 8.11845,-2.8395 11.92754,-3.5259 18.86866,-3.3975 22.05524,-4.1724 26.83317,-6.5248 5.19121,-2.5557 14.33619,-10.1331 14.33619,-11.8791 0,-0.5886 -1.43676,-1.182 -3.57059,-1.4744 z m -385.54224,3.9868 c -3.61135,-3.2551 -7.91375,-1.9985 -9.96451,2.9103 -1.37359,3.2874 -1.35506,6.0046 0.0739,10.8164 1.51974,5.1157 5.03569,8.5686 11.73822,11.5258 l 5.46509,2.4117 -1.63367,-3.1342 c -1.26124,-2.4202 -1.73296,-5.0743 -2.07002,-11.6459 -0.43782,-8.5517 -0.99031,-10.524 -3.60903,-12.8841 z m 439.59343,0.4488 c -2.85184,-2.8518 -3.75213,-3.0781 -6.54396,-1.6429 -3.97221,2.0415 -4.76867,4.2315 -5.06033,13.9159 -0.22323,7.422 -0.55259,9.4821 -1.87459,11.7221 -0.88186,1.4952 -1.60366,2.821 -1.60366,2.9473 0,0.6271 11.40042,-5.2951 12.96408,-6.7349 3.22585,-2.9681 4.73485,-6.9472 4.73485,-12.4816 0,-4.7849 -0.16626,-5.2758 -2.6164,-7.726 z m -143.17461,15.0828 c -2.71633,-5.7137 -5.07877,-11.0811 -5.25039,-11.9275 -0.49322,-2.4333 -5.00263,7.6489 -6.39928,14.3084 -1.5291,7.2889 -0.85111,12.1838 3.98915,28.7846 3.38127,11.5951 3.59597,12.8779 3.68526,22.0175 l 0.0947,9.706 3.9284,-3.5498 c 7.56521,-6.8349 17.74358,-11.5736 37.14704,-17.2957 11.55511,-3.4074 11.28734,-3.3544 11.04263,-2.1701 -0.1155,0.5571 -0.90965,6.7902 -1.76455,13.8513 -2.43171,20.0668 -3.6583,27.4619 -5.25197,31.6558 -1.39971,3.6844 -1.28578,4.7525 0.33863,3.1727 1.52521,-1.4829 17.79749,-7.1227 27.87508,-9.6621 5.77371,-1.4544 10.58016,-2.5625 10.68019,-2.4625 0.10003,0.1 -0.14014,1.5575 -0.53332,3.2382 -0.39392,1.6814 -1.06265,8.6209 -1.48668,15.4219 -0.86111,13.8252 -3.09118,24.2684 -6.9365,32.4845 -2.76868,5.9168 -2.91409,7.1473 -0.58788,4.9726 3.12267,-2.918 25.44717,-19.2164 31.83729,-23.2425 l 6.25081,-3.9384 5.67674,1.599 c 18.91405,5.3297 33.45021,2.7503 44.00036,-7.8091 l 4.7695,-4.7733 -2.30852,-0.6294 c -1.26977,-0.3462 -5.9446,-1.0357 -10.38853,-1.5321 -6.91343,-0.7718 -9.17426,-0.7164 -15.65745,0.384 -9.0719,1.539 -16.0045,4.2069 -26.12442,10.053 -9.02336,5.2128 -21.50729,13.6574 -24.97396,16.894 -2.9942,2.7957 -3.08729,2.5118 -0.62789,-1.9099 3.59671,-6.4687 5.76908,-14.6479 6.64862,-25.0348 1.32746,-15.6729 4.22933,-26.0498 8.62556,-30.8493 0.87112,-0.9504 1.38971,-1.923 1.15194,-2.1601 -0.23776,-0.2377 -3.67294,0.7811 -7.6344,2.264 -3.96072,1.4828 -11.97145,4.2723 -17.80055,6.1992 -5.82909,1.9269 -13.06254,4.7441 -16.07369,6.2608 -5.32273,2.6802 -5.46129,2.7072 -4.96493,0.9626 2.12078,-7.4613 2.79646,-10.9149 3.90839,-19.9713 2.95577,-24.0806 4.32935,-28.8932 10.04916,-35.2248 1.58977,-1.759 2.73098,-3.3573 2.53786,-3.5513 -0.19395,-0.1931 -5.66978,2.6125 -12.16919,6.2355 -6.49941,3.6236 -14.78717,7.8182 -18.41695,9.3211 -7.5175,3.1135 -18.52698,7.1234 -18.52698,6.7479 0,-0.1385 1.99073,-1.3798 4.42476,-2.7587 2.43403,-1.379 6.87258,-4.9542 9.86373,-7.9445 5.76454,-5.7614 12.29692,-14.1208 11.589,-14.8287 -0.87871,-0.8796 -12.53543,1.432 -16.6185,3.295 -5.13267,2.3425 -10.29081,7.1627 -12.70094,11.8683 -2.17848,4.2547 -4.25313,11.0796 -4.25313,13.9915 0,1.3158 -0.41171,2.1684 -1.04654,2.1684 -0.57638,0 -2.30778,0.8549 -3.84762,1.9007 -1.54059,1.045 -2.80108,1.7591 -2.80108,1.5867 0,-0.1723 0.5725,-2.6725 1.27198,-5.5559 1.73992,-7.1704 1.75139,-20.647 0.0223,-27.1733 -0.72875,-2.7511 -3.54753,-9.6767 -6.26312,-15.3904 z m -315.20746,-10.285 c -1.22965,-1.5644 -2.27313,-2.0276 -4.56091,-2.0276 -5.35969,0 -7.9883,5.9275 -4.56091,10.2846 1.21437,1.5443 2.28008,2.0277 4.47171,2.0277 5.64598,0 8.23543,-5.7275 4.6502,-10.2847 z m 164.85352,9.0353 c -2.48246,-8.0715 -6.27618,-13.4335 -6.27618,-8.8703 0,0.6418 -2.10466,5.6552 -4.67716,11.1403 -7.53817,16.0775 -9.1196,25.7142 -6.48088,39.5041 0.63483,3.3174 1.15426,6.277 1.15426,6.5771 0,0.2992 -1.73148,-0.531 -3.84762,-1.8469 -2.6264,-1.6322 -3.84994,-2.9049 -3.85606,-4.0077 -0.0108,-2.1516 -1.85838,-8.1431 -3.499,-11.3497 -4.92575,-9.6244 -12.68093,-14.5077 -25.92131,-16.3223 l -2.87954,-0.3947 1.24966,2.4517 c 3.84837,7.5474 12.27998,16.363 20.28533,21.2079 4.83415,2.9265 1.13203,1.7323 -11.28418,-3.639 -14.12066,-6.1077 -16.08759,-7.0881 -24.81391,-12.3608 -3.55901,-2.1508 -6.73717,-3.9107 -7.0619,-3.9107 -0.32473,0 0.60872,1.9907 2.07465,4.4247 3.63441,6.0338 5.34968,12.0307 7.14498,24.9832 0.83796,6.0454 2.27157,14.2816 3.18732,18.3023 0.91492,4.0208 1.84837,8.1185 2.07381,9.1057 0.40939,1.79 0.39781,1.7884 -3.73065,-0.5217 -2.27861,-1.2743 -6.56638,-3.0604 -9.52899,-3.9692 -2.96271,-0.9095 -11.20425,-3.5313 -18.3146,-5.8267 -7.11035,-2.2963 -13.29965,-4.1747 -13.75285,-4.1747 -0.46098,0 -0.27471,0.7633 0.4232,1.7314 5.12729,7.1119 7.50973,15.1295 8.517,28.6646 0.77256,10.3754 3.08034,20.2268 7.01106,29.9304 0.37095,0.9142 -1.24809,0.015 -4.3439,-2.4117 -6.7218,-5.2712 -25.57963,-16.597 -33.26867,-19.9813 -8.05759,-3.5475 -12.4993,-4.7187 -20.20215,-5.3282 -6.79024,-0.5371 -21.87435,0.9565 -21.87435,2.167 0,1.8352 9.0342,10.0422 13.40811,12.1807 8.96797,4.3831 22.0544,4.6686 33.43789,0.7295 2.88649,-0.9997 5.35738,-1.4145 6.43087,-1.0805 2.87806,0.8942 11.53436,6.764 26.10137,17.699 7.57827,5.6882 13.92374,10.3423 14.10148,10.3423 0.17774,0 -0.66642,-1.9939 -1.87532,-4.4317 -4.9364,-9.9492 -6.40391,-16.9587 -8.81867,-42.1151 -0.60946,-6.3431 -1.01496,-11.6251 -0.90261,-11.7374 1.01505,-1.0158 32.96543,9.1373 37.20012,11.8205 2.13384,1.3528 2.14078,1.6114 -0.18932,-7.7583 -1.72676,-6.9419 -6.06611,-40.3721 -5.33736,-41.1162 0.40402,-0.4124 13.48424,3.3366 23.80275,6.8226 11.68515,3.9476 17.61048,7.1334 23.13559,12.4392 l 4.72179,4.5341 0.46867,-8.6686 c 0.47173,-8.7379 1.71065,-14.7517 5.50826,-26.7523 2.99347,-9.4559 3.5229,-20.9525 1.29894,-28.1829 z m 313.01277,-9.7162 c -0.91575,-0.7479 -2.92576,-1.3467 -4.52173,-1.3467 -4.18468,0 -5.78139,2.1755 -5.50899,7.5028 0.24703,4.8326 7.73444,6.6871 10.87563,2.6933 2.0439,-2.598 1.64062,-6.818 -0.8449,-8.8495 z m -236.46876,15.8017 c -3.01578,-3.9007 -5.70442,-7.1034 -5.97377,-7.1181 -0.27009,-0.015 -2.37012,2.3108 -4.66789,5.1673 -12.881,16.0176 -18.59933,28.6793 -19.61354,43.4263 l -0.45866,6.6818 -3.03033,-4.6886 c -3.71063,-5.7414 -9.95987,-12.3963 -17.2511,-18.3708 -7.34273,-6.0168 -12.70399,-10.0868 -12.89174,-9.7867 -1.11815,1.786 -6.13466,13.7459 -7.36432,17.5589 -3.9446,12.2292 -3.86764,28.1613 0.19238,39.8349 2.07224,5.9592 1.87449,7.0072 -0.60334,3.1927 -4.51627,-6.9533 -17.20258,-14.7063 -36.55214,-22.3384 -13.20194,-5.2073 -12.16614,-5.8407 -12.85562,7.8614 -0.72949,14.4855 1.36739,24.5754 7.45045,35.8527 l 3.05265,5.6598 -3.63293,-2.7818 C 463.729,1202.658 445.58909,1195.5 434.15097,1193.7447 l -3.3659,-0.5164 0.38095,11.8191 c 0.31854,9.8699 0.72181,12.9549 2.44551,18.7071 3.25892,10.871 7.52743,18.2707 14.89248,25.8166 6.35936,6.5163 6.38622,6.5602 7.04727,11.6859 0.36475,2.8295 1.21743,5.9369 1.89534,6.9042 2.09613,2.9918 1.38433,3.0627 -2.52869,0.2516 -5.38127,-3.866 -14.35851,-7.8245 -21.74588,-9.589 -5.98915,-1.4306 -28.72156,-3.7607 -29.46179,-3.0196 -0.83721,0.8365 4.49015,19.3811 7.16194,24.9325 5.90912,12.2785 13.00409,19.6912 23.75968,24.8255 3.54132,1.6905 5.58522,3.1242 5.59596,3.9245 0.0277,2.0893 3.0181,8.0469 5.16657,10.2954 1.10813,1.1589 1.84615,2.2762 1.63988,2.4825 -0.54323,0.5432 -7.94839,-2.3779 -13.78823,-5.4406 -15.09412,-7.9145 -30.37904,-25.2463 -36.41746,-41.2939 -2.57787,-6.8495 -5.14194,-10.0699 -9.91292,-12.447 -2.15616,-1.0749 -4.07613,-1.7991 -4.26545,-1.609 -0.18932,0.1893 0.5348,1.389 1.60903,2.6664 1.09887,1.3059 3.02736,5.7775 4.40706,10.2169 2.7772,8.9387 4.92261,13.5082 8.3739,17.8359 2.81025,3.5228 3.07886,4.4447 0.65484,2.2485 -4.28545,-3.8838 -15.39801,-8.5694 -25.1894,-10.6201 -2.75802,-0.5779 -10.20847,-1.6014 -16.55699,-2.2755 -6.34852,-0.6734 -12.65778,-1.3675 -14.02063,-1.5422 l -2.47867,-0.3177 2.21849,3.9884 c 1.22039,2.1931 3.47278,8.2623 5.00568,13.4865 4.0438,13.7814 7.90838,20.7787 17.80897,32.2475 1.55291,1.7985 2.50562,3.2705 2.11698,3.2705 -0.38781,0 -3.63599,-2.3015 -7.21732,-5.1149 -10.76949,-8.4593 -30.05208,-28.5739 -43.43018,-45.3047 -6.76097,-8.4555 -16.04831,-19.2372 -20.63849,-23.959 l -8.34463,-8.5855 -4.37085,2.9195 c -5.706,3.8114 -7.29967,5.6099 -9.90523,11.175 -2.08929,4.4617 -2.15699,4.998 -2.04464,16.1576 0.24851,24.7108 6.15309,57.6624 15.3065,85.4167 9.62671,29.1917 21.75738,52.819 39.90266,77.7215 15.36651,21.0893 38.88992,46.2011 56.1364,59.927 31.42872,25.014 70.55493,45.711 106.45454,56.3127 20.89172,6.17 30.71155,8.4024 48.91759,11.1196 22.8694,3.4143 54.33351,3.8891 77.1251,1.1635 22.7501,-2.7202 54.96296,-10.7163 74.94736,-18.6047 41.44862,-16.3591 73.66759,-37.4093 106.94164,-69.8692 39.17705,-38.2197 65.95475,-83.3774 79.39444,-133.8933 7.509,-28.2229 12.20847,-71.6515 8.96187,-82.8203 -1.64368,-5.6529 -5.47279,-10.4917 -10.85942,-13.7244 l -4.37706,-2.6255 -6.91417,6.8579 c -7.59291,7.5321 -10.01683,10.3739 -26.07366,30.5669 -13.06254,16.4285 -22.85625,26.8139 -34.24204,36.3106 -11.82445,9.8621 -13.13497,10.2592 -6.19847,1.8791 8.58627,-10.3739 10.36694,-13.8806 15.73589,-30.9947 1.30672,-4.1654 3.41824,-9.1172 4.69179,-11.0041 1.27356,-1.8876 2.31547,-3.5183 2.31547,-3.6237 0,-0.1062 -2.85647,0.073 -6.34852,0.3978 -13.91448,1.2929 -26.15749,3.1104 -32.63995,4.8449 -7.12961,1.9084 -18.14223,6.5425 -19.05483,8.0184 -0.29167,0.4733 -0.92188,0.8596 -1.39897,0.8596 -0.47784,0 0.0208,-0.9519 1.10656,-2.1162 3.843,-4.1177 6.17921,-8.9526 8.04379,-16.6477 1.23975,-5.1158 2.6741,-8.9265 4.18468,-11.115 2.21543,-3.2119 2.2347,-3.312 0.54017,-2.8064 -6.6363,1.9823 -11.18804,6.831 -13.3681,14.2422 -2.25008,7.649 -7.25817,16.1537 -13.14497,22.3222 -5.53438,5.7984 -14.47235,12.7525 -21.29259,16.5639 -3.12962,1.7491 -15.67439,7.2597 -16.52698,7.2597 -0.16552,0 0.81952,-1.2758 2.18848,-2.8356 2.65715,-3.0266 5.32051,-8.2239 5.3482,-10.4386 0.009,-0.7402 0.53554,-1.3466 1.1689,-1.3466 0.63409,0 3.49057,-1.0966 6.34852,-2.4371 9.14803,-4.2901 18.764,-15.2788 23.86434,-27.2687 1.24669,-2.931 6.33704,-20.0174 6.34241,-21.288 0,-0.099 -5.79982,0.055 -12.88942,0.3402 -9.94218,0.4001 -14.5747,0.9542 -20.25448,2.4208 -7.94302,2.0524 -16.97101,6.2031 -21.83897,10.0415 -2.42319,1.9107 -2.90955,2.0862 -2.39707,0.8634 2.0377,-4.8611 2.67947,-7.2535 2.70948,-10.1015 0.0277,-2.5955 0.42014,-3.435 2.13078,-4.5562 9.32504,-6.11 18.57542,-19.8337 21.75894,-32.2814 1.38823,-5.4274 3.0696,-19.7712 3.07497,-26.2367 l 0.002,-3.155 -3.65525,0.5925 c -15.39116,2.4963 -30.32902,8.2615 -38.00575,14.667 -1.96304,1.6383 -3.77603,2.9788 -4.02768,2.9788 -0.2524,0 0.91882,-1.8183 2.60176,-4.04 3.49973,-4.6194 7.0342,-13.7359 8.90564,-22.9732 0.95883,-4.7302 1.19585,-8.8626 0.9304,-16.2184 -0.19617,-5.429 -0.53323,-10.0476 -0.7495,-10.2638 -0.5925,-0.5918 -17.36272,5.3527 -24.82086,8.7986 -8.73244,4.0338 -17.3203,10.0746 -22.44685,15.7867 l -4.19079,4.6702 1.54365,-3.5367 c 4.62177,-10.5886 5.45204,-25.6335 2.11772,-38.4021 -1.60672,-6.1538 -7.25576,-20.8232 -8.49699,-22.0644 -0.58176,-0.5818 -14.84404,11.6782 -21.6704,18.6285 -3.38591,3.4466 -7.45434,8.4794 -9.04189,11.1827 l -2.88575,4.9149 v -5.8784 c 0,-7.5852 -1.57912,-15.7152 -4.54711,-23.4119 -2.7795,-7.2065 -5.22195,-11.2272 -12.6701,-20.8586 z m -192.53228,3.6956 c -3.61135,-1.3067 -6.72096,-2.3755 -6.91028,-2.3755 -0.19007,0 -0.34474,2.2616 -0.34474,5.0265 0,16.3784 13.46508,32.917 31.9351,39.2232 6.81719,2.3278 16.54468,4.8694 16.54468,4.3239 0,-0.2917 -2.23924,-4.7872 -4.97567,-9.9892 -11.00409,-20.9185 -20.66701,-30.5706 -36.24898,-36.2089 z m 379.2593,-1.663 c -0.89417,-0.8418 -12.48624,3.4944 -18.05368,6.7533 -6.05306,3.5428 -15.30659,12.744 -19.96522,19.8521 -3.1512,4.808 -11.44581,19.9444 -11.44581,20.8871 0,0.6671 7.19111,-0.6588 13.6882,-2.5225 12.43622,-3.5683 22.15064,-9.7768 28.23751,-18.0453 4.29935,-5.8398 6.4694,-11.6635 7.40127,-19.862 z m -419.55133,14.3408 c 1.45287,1.3143 1.77224,1.3397 3.65525,0.287 2.56944,-1.4352 3.24817,-5.1573 1.21354,-6.6456 z m 452.78211,-5.8499 c -1.53512,-1.696 -4.20005,-1.9745 -5.58976,-0.5848 -1.42435,1.4244 -1.09424,4.8395 0.61872,6.3901 1.26818,1.1473 1.87996,1.2412 3.44129,0.5302 2.54406,-1.1597 3.31662,-4.3609 1.52985,-6.3355 z m -474.70035,10.2369 c -2.44477,-2.6394 -6.12456,-6.2054 -8.17689,-7.9245 l -3.73213,-3.1242 -0.53332,2.8402 c -0.85417,4.5517 0.20701,16.4501 1.89764,21.2834 3.7752,10.7909 9.68358,19.4288 16.93017,24.7477 3.21122,2.3571 21.63659,12.2531 21.63659,11.6205 0,-0.1261 -1.86218,-3.3804 -4.1392,-7.2334 -2.27619,-3.8522 -6.0853,-11.5343 -8.46467,-17.071 -4.97577,-11.5798 -9.1234,-18.3415 -15.41811,-25.1387 z m 508.20225,-3.3306 c 0,-3.7814 -0.25934,-6.8671 -0.57713,-6.8564 -1.23123,0.041 -7.70673,5.3628 -11.8652,9.7522 -5.96452,6.2962 -9.8591,12.5616 -14.14761,22.7631 -4.84648,11.5305 -9.17805,20.1407 -12.41696,24.6862 -1.46593,2.0561 -2.37863,3.6106 -2.02926,3.4544 5.90292,-2.6379 18.66619,-9.7583 22.31681,-12.4501 11.61512,-8.5655 18.71935,-24.2575 18.71935,-41.3493 z m -263.44655,-0.7441 c 1.51679,-1.6792 3.17658,-3.0535 3.68758,-3.0535 1.09739,0 6.74875,6.7749 9.30661,11.158 0.98885,1.693 2.75635,5.8484 3.92914,9.2343 1.88458,5.439 2.13393,7.2766 2.14467,15.7752 0.0123,10.0184 -1.00421,15.1957 -4.3024,21.9082 -1.76289,3.5883 -10.84479,17.3326 -11.41655,17.2772 -0.77877,-0.075 -9.23353,-13.5442 -11.15498,-17.7712 -3.17269,-6.978 -4.40401,-14.4208 -4.05307,-24.4923 0.44867,-12.8556 3.63914,-20.9378 11.8591,-30.0358 z m -270.63997,6.1592 c -1.82531,-0.9765 -1.94618,-0.9603 -3.36821,0.461 -2.79183,2.7918 -0.46941,7.0434 3.10887,5.6906 2.95882,-1.1189 3.10729,-4.6271 0.25934,-6.1515 z m 550.95898,0.7342 c -0.81499,-0.8149 -1.74149,-1.4713 -2.05927,-1.459 -3.50594,0.1424 -4.65557,5.756 -1.34821,6.5863 2.55713,0.6418 3.92766,0.032 4.45477,-1.9846 0.2786,-1.065 -0.0977,-2.1931 -1.04729,-3.1427 z m -497.98906,8.057 c -1.99611,-1.0142 -3.81837,-1.8437 -4.04918,-1.8437 -0.98189,0 1.91229,17.602 3.9861,24.2398 3.20501,10.2569 5.94765,14.6332 14.50467,23.1379 4.28693,4.2609 8.83405,8.4871 10.10455,9.392 l 2.30935,1.6445 -1.70527,-3.369 c -0.96966,-1.9146 -1.92303,-5.6367 -2.20932,-8.6225 -0.27704,-2.8895 -0.88112,-7.6528 -1.34284,-10.5863 -2.46163,-15.6328 -10.56626,-28.3891 -21.59806,-33.9928 z m 444.96765,5.9884 c 0.49257,-3.9461 0.77729,-7.2704 0.63103,-7.3881 -0.14542,-0.1185 -1.91998,0.6517 -3.94377,1.7106 -11.91837,6.2369 -18.97787,18.4477 -21.6666,37.4756 -1.8192,12.8701 -1.87764,13.1125 -3.92997,16.136 -2.28314,3.3659 -1.83985,3.1419 6.3601,-3.2066 14.02137,-10.8564 19.732,-22.1837 22.5492,-44.7275 z m -278.08357,2.9619 c 1.20436,-2.5509 2.43328,-4.6378 2.73106,-4.6378 1.46519,0 11.59891,7.829 16.17298,12.4939 9.44591,9.6343 13.35893,20.463 12.7279,35.2162 -0.36401,8.494 -1.2743,12.4985 -5.11961,22.5123 l -0.81415,2.1208 -6.36622,-4.9212 c -8.01453,-6.1953 -12.82941,-12.0529 -17.15256,-20.8662 -7.74907,-15.799 -8.42011,-28.7023 -2.17931,-41.918 z m -220.58349,1.5528 c 0,3.0803 3.01347,6.1215 6.06538,6.1215 4.72022,0 7.18806,-6.5894 3.69675,-9.8699 z m 320.55336,-2.1746 c 2.51247,-1.743 4.97577,-3.1858 5.47361,-3.2074 1.21437,-0.052 4.53942,6.9496 5.99767,12.6271 2.56175,9.9783 0.75256,21.481 -5.33125,33.8896 -1.86764,3.8091 -4.99031,8.7295 -6.93955,10.9333 -3.17269,3.5876 -16.45465,14.5416 -16.89479,13.9345 -0.37485,-0.5187 -3.50132,-11.195 -4.23933,-14.4793 -1.33895,-5.9577 -0.98115,-18.3438 0.72107,-25.0009 2.8549,-11.1611 10.14076,-21.0172 21.21256,-28.6969 z m 226.56261,-1.1636 c -2.87102,-3.6497 -8.2508,-2.5901 -9.93755,1.957 -2.09771,5.6529 4.19617,9.8167 8.72402,5.7714 2.7834,-2.4871 3.20817,-5.1928 1.21354,-7.7284 z m -547.84611,12.964 c -2.25934,-2.4046 -3.36357,-2.4624 -5.3959,-0.2808 -1.96304,2.107 -1.99222,3.8499 -0.0931,5.5683 2.00916,1.8184 4.77098,1.2605 6.17458,-1.2474 1.08655,-1.943 1.04338,-2.1993 -0.68569,-4.04 z m 556.55105,0.4165 c -1.03043,-1.6469 -5.10581,-1.9985 -6.31241,-0.5441 -1.24586,1.5013 -0.78793,5.1096 0.77109,6.0854 2.02149,1.2651 5.22576,0 5.79983,-2.2824 0.28009,-1.1173 0.16385,-2.5833 -0.2586,-3.2589 z m -532.24584,13.0718 c -6.75485,-0.9396 -17.52971,-0.9566 -22.99249,-0.037 -8.72716,1.469 -19.85213,6.7302 -23.88593,11.295 -1.33209,1.5083 -1.30977,1.5783 0.76951,2.414 3.8229,1.5367 12.00294,3.1712 18.30144,3.656 7.96683,0.6141 16.07064,-0.5602 28.47222,-4.1261 8.81793,-2.5357 10.96103,-2.8704 18.08369,-2.8265 6.39317,0.039 8.95418,0.3971 12.26617,1.713 2.30315,0.9149 4.31009,1.5405 4.46014,1.3897 0.41939,-0.4187 -7.4851,-4.7318 -12.57238,-6.8595 -7.40665,-3.0981 -16.51392,-5.7298 -22.90247,-6.6187 z m 483.33353,4.9772 c -6.99346,2.7002 -17.76664,8.0253 -17.26111,8.5316 0.15237,0.1517 2.75255,-0.5887 5.77909,-1.6459 7.89227,-2.7572 12.87257,-2.551 27.16022,1.1258 20.66544,5.3189 32.18591,5.6883 45.84642,1.469 l 5.22195,-1.613 -3.06728,-2.6271 c -4.9226,-4.2154 -14.60165,-8.6647 -21.53656,-9.8999 z m -334.53626,2.8148 v -5.292 l 4.68716,0.6411 c 10.88869,1.4891 18.54236,5.2058 26.3745,12.8079 9.72832,9.4428 15.07106,22.3638 15.09801,36.5144 l 0.0116,5.97 -4.42476,-0.4802 c -5.92524,-0.6433 -15.1472,-3.7299 -19.54731,-6.5424 -12.82246,-8.1962 -22.19909,-26.62 -22.19909,-43.6187 z m 196.6129,-3.9237 c 3.38591,-0.8311 6.58861,-1.5368 7.11729,-1.5675 1.51669,-0.088 1.18352,10.1331 -0.56945,17.4435 -2.63946,11.0126 -10.17457,23.6289 -17.22258,28.8369 -5.33358,3.9415 -13.69589,7.4112 -20.88247,8.664 -3.70526,0.6464 -6.91103,1.1751 -7.12498,1.1751 -0.21387,0 -0.19544,-3.2035 0.0416,-7.118 0.89649,-14.8249 5.09812,-24.5731 14.69399,-34.0928 7.1712,-7.1143 13.9368,-10.8841 23.94669,-13.3412 z m -109.33317,18.5792 c 0.0331,-3.4906 0.23387,-6.3448 0.44552,-6.3432 0.21165,0 1.13278,1.3144 2.04696,2.9158 0.91418,1.6021 3.25197,4.6802 5.19426,6.841 l 3.53206,3.9284 v 13.0133 l -7.28272,0.5118 c -4.0061,0.2816 -7.87522,0.7395 -8.5986,1.0165 -1.06969,0.411 -1.19436,0.2286 -0.66567,-0.975 3.45593,-7.8759 5.27124,-14.9978 5.3282,-20.9085 z m 29.11319,-3.779 c 1.28671,-2.8242 1.75149,-2.1401 1.45519,2.1431 -0.35863,5.1719 1.03728,12.1238 3.72601,18.5631 1.1927,2.8564 1.94303,5.1712 1.66674,5.1435 -0.2763,-0.029 -4.13855,-0.4718 -8.58249,-0.9858 l -8.07991,-0.9349 v -12.4163 l 4.49626,-4.8556 c 2.47329,-2.6703 4.86647,-5.666 5.31819,-6.6571 z m -65.8915,17.8605 c -1.00727,-2.7725 -1.76834,-5.0419 -1.69295,-5.0419 0.0754,0 3.63367,3.4283 7.90606,7.6191 4.27314,4.19 8.49709,7.8491 9.38664,8.1315 1.69527,0.5378 2.24007,1.9484 0.75182,1.9484 -0.47562,0 -3.52289,1.3305 -6.7718,2.9565 l -5.90764,2.9565 -0.92113,-6.7641 c -0.50636,-3.7198 -1.74453,-9.0326 -2.75107,-11.806 z m 99.89132,1.1882 c 1.24271,-1.3105 2.31778,-2.3824 2.38854,-2.3824 0.07,0 -0.354,1.8183 -0.94346,4.04 -0.58871,2.2216 -1.28199,6.8965 -1.54059,10.3885 -0.44403,6.0084 -1.01801,7.4343 -2.21312,5.4997 -0.28861,-0.4663 -3.27587,-2.1316 -6.63788,-3.7006 -5.82678,-2.7195 -6.02379,-2.8927 -4.21311,-3.7176 2.54397,-1.1596 10.35075,-7.1673 13.15952,-10.1276 z m -182.7124,4.2708 v -5.3359 l 6.04611,0.5048 c 10.7078,0.8927 19.65114,4.5748 27.15476,11.1804 4.57786,4.0291 10.23774,12.3539 12.1892,17.9282 1.44435,4.1247 3.58902,18.8456 2.85259,19.5813 -0.69485,0.6948 -15.8075,-2.0108 -20.00598,-3.5814 -16.11454,-6.0291 -28.23678,-23.3203 -28.23678,-40.2774 z m 261.25165,-4.6325 c 0.84648,-0.167 2.83805,-0.3432 4.42476,-0.3925 l 2.88575,-0.089 v 5.7313 c 0,11.1504 -5.7337,23.6366 -14.09222,30.69 -7.57438,6.3916 -14.77781,9.6005 -25.1856,11.2188 -3.15657,0.4909 -6.80256,1.058 -8.10223,1.2597 l -2.36242,0.367 0.65021,-5.5874 c 2.06159,-17.7043 11.12033,-31.3871 25.23719,-38.1204 3.59754,-1.7152 8.4455,-3.4913 10.77328,-3.9469 2.32778,-0.4547 4.92492,-0.9642 5.7714,-1.1304 z m -324.97709,12.6117 c -9.0857,-0.8611 -9.88216,-0.858 -19.60733,0.079 -8.00683,0.7719 -11.49119,1.5845 -11.88753,2.7734 -0.16005,0.4786 2.27314,3.4328 5.40665,6.5663 4.48477,4.4847 7.23658,6.457 12.93407,9.2719 10.44846,5.1612 17.48804,6.2447 36.4798,5.6137 15.43423,-0.5133 25.45718,0.1738 31.13549,2.1338 1.88755,0.6518 3.49511,1.1143 3.57207,1.0273 0.0761,-0.087 -3.89227,-3.2082 -8.81951,-6.9349 -15.94902,-12.0638 -32.4283,-18.9379 -49.2138,-20.53 z m 421.78889,0.8387 c -7.35347,-1.1296 -26.94321,-0.9618 -33.84191,0.2894 -16.45844,2.9865 -33.71492,11.5766 -47.19463,23.4934 l -3.46287,3.0612 3.37822,-1.1543 c 5.7914,-1.9777 15.81908,-2.6534 32.29984,-2.1747 12.61249,0.3671 17.14645,0.2178 22.03598,-0.7234 12.21838,-2.3524 20.4438,-6.7355 29.34713,-15.6389 5.84373,-5.8437 5.83678,-5.863 -2.56175,-7.1526 z m -503.11803,1.9707 c -2.53943,-0.6334 -6.10381,-1.3875 -7.9207,-1.6753 l -3.30356,-0.5225 0.51332,2.1894 c 2.4394,10.417 6.52479,18.1329 12.97334,24.5053 8.98799,8.8826 19.34188,12.7464 39.29163,14.664 6.77172,0.6511 13.84288,1.686 15.71358,2.2994 1.86987,0.6141 3.499,1.0172 3.61978,0.8965 0.12088,-0.1209 -2.59399,-1.9054 -6.03222,-3.9654 -4.28313,-2.5671 -9.74369,-7.1057 -17.34419,-14.4146 -6.10076,-5.8676 -13.18647,-12.0907 -15.7459,-13.8283 -5.9884,-4.0669 -15.88594,-8.6817 -21.76506,-10.1484 z m 569.31361,3.1429 c 0.6264,-2.4332 0.91186,-4.5472 0.63483,-4.6972 -0.97041,-0.5256 -11.52667,1.6498 -15.84214,3.265 -10.98641,4.11 -17.43348,8.6063 -30.44832,21.2333 -10.33926,10.0307 -15.13024,13.9237 -21.34567,17.345 -1.79372,0.9881 -3.13036,1.9269 -2.97031,2.0869 0.16005,0.1601 2.3201,-0.22 4.80025,-0.8457 2.48089,-0.6248 9.24186,-1.5159 15.02483,-1.9807 19.33567,-1.5544 28.1159,-4.9696 37.69259,-14.6594 6.3339,-6.4078 10.2785,-13.2972 12.45392,-21.7473 z m -373.83792,3.1348 c -0.38781,-0.955 0.7834,-0.5964 4.50404,1.379 2.76496,1.4683 7.32819,3.1512 10.14076,3.7399 2.81258,0.588 5.24502,1.2005 5.40508,1.3605 0.16015,0.1602 -1.43741,1.6092 -3.54975,3.2205 -2.11234,1.6106 -5.36052,4.6195 -7.2189,6.6856 -1.85764,2.067 -3.53521,3.7576 -3.72759,3.7576 -0.19238,0 -0.56407,-2.047 -0.82573,-4.5494 -0.40013,-3.83 -1.72296,-8.1916 -4.72791,-15.5936 z m 163.06971,1.3467 c 4.59703,-2.684 5.02495,-2.4002 2.88797,1.9169 -1.06034,2.1439 -2.65252,6.9056 -3.53743,10.5809 l -1.6083,6.6832 -7.04884,-7.121 c -6.8372,-6.9064 -6.98725,-7.1342 -5.00189,-7.5705 7.86132,-1.7299 11.57817,-2.8965 14.3084,-4.4894 z m -195.0224,26.784 c 0,-0.114 1.87227,0.6494 4.16004,1.6967 4.33389,1.9846 14.08064,4.167 18.60848,4.167 3.07266,0 3.13814,0.197 1.04117,3.1412 -2.05843,2.8919 -7.23575,14.0244 -8.46855,18.2114 l -0.96346,3.2689 -2.63103,-4.3678 c -4.1392,-6.8718 -7.9584,-14.7847 -9.93218,-20.5808 -0.9981,-2.9311 -1.81456,-5.4227 -1.81456,-5.5366 z m 228.24782,1.1088 c 0.97957,-1.5852 1.17584,0.1878 0.32936,2.9719 -1.18038,3.8823 -12.56396,27.1102 -13.30419,27.1479 -0.31778,0.016 -0.57713,-0.6926 -0.57713,-1.5752 0,-2.2085 -5.37821,-14.8702 -8.30776,-19.5573 l -2.40476,-3.8477 5.54901,-0.4786 c 6.07307,-0.5232 17.99292,-3.4921 18.71547,-4.661 z m -405.79987,2.1823 1.53901,-2.1877 1.77678,1.803 c 0.97726,0.9919 4.1769,4.5387 7.11035,7.883 l 5.33357,6.08 -3.55901,4.3708 c -1.95693,2.4032 -5.66442,6.9396 -8.23849,10.0799 -2.57407,3.1397 -5.05117,6.3848 -5.50436,7.2112 -0.69179,1.2614 -0.8926,0.8288 -1.25123,-2.6932 -0.23545,-2.3078 -0.60177,-8.9996 -0.81489,-14.8718 -0.40939,-11.2896 -0.21543,-12.24 3.60829,-17.6751 z m 578.18062,5.5851 c 4.83183,-5.5798 6.88805,-7.452 7.56596,-6.8895 0.51174,0.4248 1.88997,2.5341 3.06191,4.6879 1.72843,3.1757 2.0277,4.4501 1.58218,6.7463 -0.30167,1.5568 -0.70106,7.7661 -0.88649,13.7968 -0.18626,6.0307 -0.58027,10.9465 -0.87574,10.9226 -0.2963,-0.024 -2.09613,-1.997 -4.00073,-4.3855 -1.9045,-2.3885 -5.13267,-6.4378 -7.17342,-8.9987 -2.04075,-2.5609 -4.20469,-5.2666 -4.80951,-6.0115 -0.60409,-0.7457 -1.09888,-1.5467 -1.09888,-1.7807 0,-0.2338 2.98577,-3.8729 6.63482,-8.0876 z m -439.86563,-0.077 c 4.07538,-0.7995 16.06915,-0.064 20.22762,1.2413 13.07023,4.1007 23.72042,14.6554 28.17592,27.9258 2.51099,7.4789 2.82415,7.1442 -6.66557,7.1311 -9.97757,-0.014 -16.63313,-1.4574 -22.87625,-4.9626 -6.2923,-3.5329 -10.53931,-7.3259 -14.64545,-13.0803 -3.52447,-4.9388 -7.56206,-14.2684 -7.13656,-16.4924 0.13689,-0.718 1.36127,-1.4566 2.92029,-1.7629 z m 312.20788,0.8003 1.6622,0.8896 -1.46205,4.2477 c -4.00452,11.6414 -11.28344,20.0921 -21.75505,25.258 -7.55669,3.7283 -13.93448,5.0896 -23.91594,5.1026 l -8.35852,0.012 0.49553,-2.8857 c 0.2724,-1.5868 1.9146,-5.7991 3.6483,-9.3605 3.99221,-8.1977 10.94019,-15.3927 18.72853,-19.3942 4.72633,-2.4278 6.83173,-3.1642 13.85131,-4.8456 z m -450.72144,5.1034 c -2.00768,2.4194 0.65725,6.2131 3.65525,5.2043 1.71685,-0.5771 2.62715,-3.1196 1.72297,-4.8095 z m 581.45667,3.0535 c 0.73793,1.9223 3.26577,3.0027 4.54322,1.9423 1.61599,-1.3413 2.14847,-3.7645 1.10425,-5.0226 z m -563.32981,9.4089 c 2.72865,-3.1766 3.12267,-3.3944 4.00147,-2.2162 3.46518,4.6441 10.91184,12.8379 14.14686,15.5658 3.99851,3.3721 4.61565,5.0889 0.89038,2.4787 -1.1889,-0.8326 -5.97072,-3.4536 -10.62786,-5.8237 -12.52237,-6.3748 -12.03064,-5.7907 -8.41086,-10.0045 z m 542.86135,3.5166 c 2.74181,-3.4906 5.21575,-6.3478 5.49742,-6.3486 0.28167,-7e-4 1.64063,1.4229 3.01959,3.1643 l 2.50784,3.1658 -1.86606,1.4152 c -1.02579,0.778 -4.80868,3.0527 -8.40622,5.0535 -3.59754,2.0015 -8.09917,4.6757 -10.00377,5.943 l -3.46287,2.304 3.86448,-4.1754 c 2.12624,-2.2962 6.10845,-7.0311 8.84952,-10.5217 z m -484.23708,4.2142 c 17.24416,-1.8038 25.15328,0.5179 47.13304,13.8336 6.98345,4.2308 13.73599,8.25 15.00567,8.9311 l 2.30852,1.2381 -2.31398,0.031 c -2.79339,0.037 -12.86025,2.8295 -22.3107,6.1877 -3.80909,1.3543 -10.04222,3.0611 -13.85131,3.7945 l -6.92566,1.3335 3.96535,1.3197 c 4.35316,1.4498 10.56016,5.529 17.38884,11.4282 4.59176,3.9669 5.45972,5.3358 2.96957,4.6841 -2.00147,-0.5234 -13.18035,1.8344 -19.70662,4.1561 -2.96263,1.0542 -8.48088,3.6753 -12.26302,5.8237 -5.98915,3.402 -6.6902,4.0122 -5.43665,4.7279 0.79258,0.4525 3.58903,2.7865 6.2146,5.1866 13.3719,12.2223 26.79621,19.0533 37.52022,19.0949 1.62284,0.01 2.83489,0.3154 2.69328,0.6864 -0.14079,0.3717 -2.16078,2.3024 -4.48857,4.2908 -4.72633,4.0377 -4.3401,4.0054 -14.56237,1.2143 -7.58596,-2.0708 -21.12106,-3.2943 -29.68502,-2.6826 -11.41581,0.8149 -19.83518,3.1028 -29.64806,8.0562 -8.37465,4.2277 -16.4854,5.4274 -22.10675,3.2696 -1.78455,-0.6849 -13.31502,-27.655 -13.245,-30.9809 0.0131,-0.6364 0.91492,-2.17 2.00305,-3.4082 1.67915,-1.9107 2.19858,-2.1147 3.42823,-1.3466 1.96304,1.2258 5.31736,1.1535 5.31736,-0.1155 0,-0.561 -0.86564,-1.8329 -1.92376,-2.8272 -1.05803,-0.9942 -1.92376,-2.1584 -1.92376,-2.5871 0,-0.9203 3.27124,-5.8645 3.88532,-5.8721 0.23239,0 0.87723,1.2935 1.43204,2.8802 4.7495,13.5736 20.22531,23.6774 41.05618,26.8039 4.96187,0.7442 12.01757,1.0557 20.77705,0.9173 l 13.26418,-0.2108 -5.00189,-1.81 c -5.94145,-2.15 -14.93101,-7.2557 -23.00861,-13.0687 -3.21659,-2.3148 -6.83405,-4.8133 -8.03916,-5.5521 l -2.19005,-1.3436 5.38275,-3.1981 c 8.61398,-5.1173 28.04356,-11.2204 39.75641,-12.487 2.18774,-0.237 1.99,-0.4794 -4.77561,-5.8668 -15.05105,-11.9853 -26.10137,-26.3184 -29.74041,-38.5753 -1.95767,-6.5955 -1.74982,-7.6013 1.64526,-7.9568 z m 415.8495,0.304 c 5.2843,-0.8788 10.0122,-0.988 15.92985,-0.3701 5.45443,0.5701 5.47898,0.6271 3.5052,8.2446 -2.74329,10.5878 -9.9922,20.7093 -22.78159,31.8104 -4.29314,3.7268 -9.185,8.0184 -10.87026,9.5366 l -3.06422,2.7603 7.23575,0.9781 c 3.97924,0.5371 11.21731,2.2808 16.08453,3.8737 9.39358,3.075 23.88361,9.4905 23.81359,10.5447 -0.0231,0.3463 -1.66831,1.7361 -3.65525,3.0881 -5.78983,3.9384 -27.36872,17.0256 -30.2352,18.3361 -2.44394,1.1174 -1.50595,1.1751 13.92448,0.8558 14.78791,-0.3062 17.35734,-0.5586 24.19602,-2.3755 4.20849,-1.1182 9.94765,-3.2398 12.75327,-4.7141 8.62861,-4.5341 19.82592,-15.8483 21.52424,-21.749 0.58092,-2.0191 0.60945,-2.0014 2.16616,1.3729 l 1.57829,3.4197 -1.87227,2.2247 c -1.03043,1.2235 -1.67684,2.5417 -1.4375,2.9295 0.6064,0.9812 4.47552,0.8827 5.49899,-0.1407 0.61252,-0.6126 1.39286,-0.037 2.84722,2.103 1.10119,1.6206 2.00231,3.3281 2.00231,3.7945 0,1.138 -6.98262,18.8309 -9.63365,24.4099 -1.16426,2.4494 -2.80108,4.8195 -3.6383,5.2673 -0.87954,0.471 -4.32778,0.6834 -8.16846,0.5033 -5.85141,-0.2747 -7.4297,-0.688 -13.18804,-3.4536 -19.4596,-9.3473 -37.54172,-10.8433 -60.9913,-5.0472 l -8.27924,2.0461 -3.26355,-3.1173 c -1.79521,-1.7145 -4.04759,-3.6375 -5.00568,-4.2732 -1.656,-1.0988 -1.48594,-1.1773 3.46287,-1.6013 7.18268,-0.6164 15.73821,-3.6976 21.83897,-7.8661 4.80266,-3.2819 19.74821,-15.8944 20.12991,-16.9887 0.0955,-0.2724 -3.83447,-2.534 -8.73169,-5.0265 -8.64018,-4.3962 -23.6666,-9.1434 -28.94088,-9.1434 -2.00999,0 -2.01305,-0.011 -0.55712,-1.6352 3.4752,-3.8769 12.97103,-10.9203 17.71515,-13.1404 l 5.14194,-2.4063 -6.71864,-1.3605 c -3.696,-0.748 -11.79824,-3.0997 -18.00672,-5.2251 -6.20774,-2.1255 -13.13108,-4.1016 -15.38505,-4.3917 l -4.09919,-0.5271 6.4078,-3.6336 c 3.52364,-1.9985 10.62323,-6.1054 15.77591,-9.1273 10.49625,-6.1554 18.86625,-9.7675 24.99166,-10.7856 z m -486.57676,6.3438 c 2.39633,-2.5956 4.60565,-4.7595 4.91112,-4.8095 0.30473,-0.049 2.13995,1.0273 4.07687,2.3932 l 3.5229,2.4832 -2.1531,1.5005 c -1.1851,0.8258 -3.93923,3.3036 -6.12234,5.5067 l -3.96767,4.0054 -2.31167,-3.1805 -2.31241,-3.1796 4.35622,-4.7195 z m 569.28953,-3.7447 c 0.24397,-0.6348 0.66567,-1.1342 0.93808,-1.1096 0.62724,0.058 8.5748,9.5798 8.5748,10.2739 0,0.284 -0.77793,1.6275 -1.72907,2.9858 -0.9504,1.3589 -1.80688,2.6048 -1.90228,2.7695 -0.0955,0.1646 -1.78687,-1.4945 -3.7576,-3.6876 -1.97156,-2.1923 -4.5787,-4.5002 -5.79298,-5.1281 -2.86796,-1.4836 -2.78488,-2.0822 0.50868,-3.6521 1.49446,-0.7126 2.91649,-1.816 3.16046,-2.4517 z m -554.2368,11.8053 c 1.65063,-1.2027 3.2089,-2.1885 3.46287,-2.1908 0.25388,0 7.04106,2.9042 15.08254,6.4586 8.04148,3.5536 18.08368,7.9214 22.31607,9.7067 4.23229,1.7846 9.15489,3.9861 10.93944,4.8919 l 3.24355,1.6475 h -9.3997 c -9.05801,0 -9.60132,0.094 -14.90637,2.581 -3.02801,1.4198 -6.62324,3.7345 -7.98914,5.1435 l -2.48404,2.5625 2.60324,1.5867 c 4.3501,2.6525 8.237,2.1546 13.04031,-1.6699 3.82835,-3.0481 4.46393,-3.282 9.64282,-3.5436 3.04968,-0.154 7.39738,0.11 9.66135,0.5871 6.75634,1.4228 23.73431,6.5594 23.73736,7.1812 7.4e-4,0.3178 -1.36053,0.5771 -3.02579,0.5771 -8.91101,0 -26.57383,5.9276 -33.78957,11.3412 l -2.57407,1.9307 -16.66397,-7.9476 c -9.16498,-4.3708 -17.44737,-8.4823 -18.40462,-9.1364 -0.95735,-0.6541 -2.86185,-2.9828 -4.23238,-5.1735 -1.37044,-2.1908 -4.13615,-6.6187 -6.14688,-9.8391 -2.01083,-3.2197 -3.65525,-6.1962 -3.65525,-6.614 0,-1.1282 6.09919,-7.5713 9.54205,-10.0808 z m 531.81468,2.4873 c 5.07886,-2.5032 9.50742,-4.5786 9.84215,-4.6125 1.46056,-0.1477 6.54322,3.1296 9.05264,5.8368 5.27271,5.6891 5.23733,4.9072 0.55712,12.3816 -2.31704,3.7013 -5.28123,8.6347 -6.58554,10.9641 -2.80174,4.9995 -5.15036,6.4193 -26.62533,16.0968 l -13.75897,6.2008 -2.62177,-2.3017 c -5.04116,-4.4263 -13.53742,-7.7868 -27.98438,-11.0696 -6.86026,-1.5582 -7.7121,-1.9114 -5.74601,-2.3801 1.26976,-0.3024 6.11771,-1.8007 10.77328,-3.3289 7.61977,-2.5018 9.31503,-2.7819 16.98482,-2.8072 l 8.51931,-0.028 4.80877,2.9665 c 5.87597,3.6244 9.77287,4.2969 13.96135,2.4078 1.67831,-0.7565 3.05116,-1.6283 3.05116,-1.9369 0,-0.8803 -4.62177,-4.1808 -8.84952,-6.3209 -6.27767,-3.1765 -11.65894,-4.4255 -19.18562,-4.4508 l -6.97798,-0.024 7.69516,-2.9535 c 9.94375,-3.816 21.52266,-8.9395 33.08935,-14.6409 z m -388.74502,1.2157 -1.13277,-2.1901 2.55943,0.6511 c 1.4074,0.3578 6.79255,0.6387 11.96755,0.624 l 9.40969,-0.027 -0.43477,2.7202 c -0.70402,4.4056 -0.73329,13.9361 -0.0561,18.4893 l 0.62789,4.2262 -2.27472,-3.1404 c -1.25124,-1.7276 -4.64252,-5.1873 -7.53511,-7.689 -7.01337,-6.0654 -11.75054,-10.995 -13.13108,-13.6644 z m 233.96306,-0.8119 c -0.37012,-1.1935 -0.18932,-1.3528 0.98189,-0.8626 2.53332,1.0596 17.67513,1.4282 20.35303,0.4948 1.37128,-0.4786 2.66169,-0.701 2.86796,-0.4956 0.88649,0.8873 -4.56397,7.202 -10.48162,12.1446 -3.52511,2.9442 -7.68358,7.0272 -9.24112,9.0742 -1.55827,2.0461 -3.03421,3.7405 -3.28124,3.7644 -0.24628,0.024 -0.17163,-1.9468 0.16543,-4.3808 0.56408,-4.07 -0.2762,-16.2323 -1.36432,-19.739 z m -398.87577,5.5027 c 0.009,-1.8976 0.19164,-2.2223 0.75803,-1.3466 0.97726,1.5122 0.97726,3.8476 0,3.8476 -0.42329,0 -0.76414,-1.125 -0.75803,-2.5009 z m 587.54047,-0.3515 c 0.5725,-1.3183 0.614,-1.3174 0.93262,0.027 0.36012,1.5167 -0.27008,2.6141 -1.05191,1.833 -0.26314,-0.264 -0.21006,-1.1012 0.1193,-1.86 z m -443.65185,8.0013 c 12.12065,-2.0293 26.21057,1.7698 33.23245,8.961 2.66336,2.7265 9.42507,12.3316 10.31545,14.6533 0.50942,1.3259 -8.70715,4.0615 -17.29575,5.1342 -4.674,0.5834 -8.06685,0.5602 -12.3123,-0.082 -10.73326,-1.6244 -17.11412,-4.8503 -30.25057,-15.2942 -3.97924,-3.1635 -4.27703,-3.6029 -3.22817,-4.7625 2.45866,-2.7164 13.56122,-7.609 19.53888,-8.6094 z m 282.22908,0.6205 c 6.47783,-1.6383 19.29492,-1.0844 24.92163,1.0773 4.61167,1.7714 13.76286,7.3373 13.70358,8.3346 -0.0485,0.8118 -10.22922,8.6933 -15.03104,11.6351 -12.4516,7.6314 -30.13739,9.4844 -44.68595,4.6826 l -4.73254,-1.5614 2.32621,-4.3878 c 6.20922,-11.7151 12.47929,-16.9933 23.49802,-19.7805 z m 152.34393,5.0372 c 2.01768,-2.945 3.88838,-5.369 4.15698,-5.3867 0.94725,-0.064 3.08581,3.953 2.67484,5.0242 -0.32474,0.845 -9.04884,5.716 -10.23848,5.716 -0.14393,0 1.38896,-2.4094 3.40666,-5.3535 z m -573.79903,-2.7873 1.85838,-1.9777 1.15815,1.7707 c 0.63789,0.9734 2.1469,2.9041 3.35507,4.2893 1.20742,1.3859 1.9961,2.5194 1.75297,2.5194 -0.58491,0 -9.15582,-3.796 -9.62134,-4.2608 -0.19932,-0.1992 0.47479,-1.2527 1.49669,-2.3408 z m 1.62821,14.4647 c -0.22628,-0.6756 0.97336,-0.4655 3.80215,0.6657 2.2724,0.9088 5.60291,2.1646 7.40201,2.7902 1.79919,0.6265 3.2705,1.2721 3.2705,1.4352 0,0.164 -1.73148,2.8027 -3.84762,5.8653 -2.11623,3.0619 -3.84762,6.0122 -3.84762,6.5563 0,2.9273 -1.45047,0 -3.80215,-7.6814 -1.45592,-4.7541 -2.79646,-9.0888 -2.97725,-9.6313 z m 573.14595,0.8149 c 2.73486,-1.2489 3.31662,-1.1712 2.71643,0.364 -0.2901,0.7404 -1.59367,5.0689 -2.89881,9.619 -1.30441,4.5502 -2.6026,8.2723 -2.88343,8.2723 -0.28167,0 -2.29629,-2.9611 -4.47709,-6.5809 l -3.96535,-6.5809 4.79256,-2.1077 c 2.63557,-1.1589 5.65747,-2.5025 6.71559,-2.9858 z m -465.79704,11.7151 c 4.4632,-1.2266 15.50657,-1.4559 18.33609,-0.3801 1.1212,0.4263 5.73212,4.3347 10.24617,8.6848 4.51394,4.3501 10.28534,9.105 12.82477,10.5663 l 4.61713,2.6571 -4.63862,0.5202 c -2.55101,0.287 -6.70642,1.0365 -9.23427,1.6676 -7.44972,1.8576 -11.23501,2.1516 -17.06105,1.3259 -10.51005,-1.4906 -17.57584,-4.9496 -26.0105,-12.7317 l -4.61713,-4.2601 1.92376,-1.5259 c 2.78413,-2.2085 9.33578,-5.3482 13.61354,-6.524 z m 344.42518,-0.6148 c 4.71569,-0.9111 13.00641,-0.4471 17.59816,0.9865 5.09424,1.5899 13.02568,5.9507 13.52047,7.4336 0.157,0.471 -1.29356,2.4348 -3.22353,4.3647 -11.20731,11.2073 -26.74935,15.2197 -43.74491,11.292 -4.08307,-0.9435 -8.29471,-1.5491 -9.35968,-1.3452 -3.16889,0.6057 -2.24155,-0.631 3.25818,-4.3454 2.85648,-1.93 8.57934,-6.7818 12.71706,-10.7818 4.13772,-3.9999 8.29313,-7.422 9.23427,-7.6043 z m -61.00424,3.9907 c 0,-0.7988 0.18774,-1.4529 0.41782,-1.4529 0.79182,0 8.43697,5.9838 10.45466,8.1831 2.21544,2.4148 6.3162,8.7449 5.91987,9.138 -0.68179,0.6788 -13.65282,2.6865 -17.35188,2.6865 -4.90028,0 -4.77487,0.8811 -1.46362,-10.2823 1.11268,-3.7506 2.02306,-7.4728 2.02306,-8.2723 z m -249.07757,0.9128 c -1.23966,-1.7892 -1.23197,-1.8423 0.19163,-1.2805 4.63019,1.8292 12.73633,2.8888 19.28417,2.5217 l 7.02652,-0.394 -2.60176,4.9903 c -1.43046,2.7449 -2.60093,5.8314 -2.60093,6.8587 0,1.0274 -0.20933,1.8676 -0.46478,1.8676 -0.25545,0 -2.77405,-1.2135 -5.59745,-2.6971 -5.51585,-2.8988 -13.13488,-8.8319 -15.23722,-11.8668 z m 41.64274,-1.5961 c 0.87954,0 6.61472,18.1868 5.94682,18.8555 -1.14352,1.1427 -18.53689,-0.8427 -19.97439,-2.2793 -0.88269,-0.8834 4.60714,-8.8141 8.60861,-12.4347 z m 248.60401,1.3798 c 5.38044,-1.6622 5.4989,-1.6345 2.998,0.7049 -6.59481,6.1669 -20.52004,14.9224 -21.36188,13.4304 -0.15773,-0.2801 -0.71106,-1.823 -1.22891,-3.429 -0.51786,-1.606 -2.05307,-4.3762 -3.41203,-6.1561 l -2.47014,-3.2366 10.81329,-0.062 c 7.42201,-0.042 12.02146,-0.4355 14.66166,-1.2512 z m 126.91296,15.4867 c -1.72991,-1.9122 -3.04422,-1.8668 -4.45782,0.1516 -1.79761,2.5663 -0.51711,4.9133 2.68022,4.9133 2.1431,0 2.6502,-0.3186 2.85879,-1.7945 0.14005,-0.9874 -0.34632,-2.4594 -1.08118,-3.2705 z m -536.71291,0.4107 c -1.53827,-1.8537 -4.50246,-1.3736 -5.53668,0.8965 -0.81184,1.7814 -0.70791,2.1847 0.89649,3.4836 1.59524,1.292 2.00926,1.3397 3.43518,0.3948 1.96313,-1.3013 2.45866,-3.2643 1.20511,-4.7749 z m 165.20494,9.693 c 1.92154,-2.1362 3.76528,-3.8845 4.0977,-3.8845 0.33326,0 1.01116,0.9804 1.50752,2.1793 0.49636,1.1982 2.27008,4.4016 3.94071,7.118 1.67062,2.7165 3.0381,5.1559 3.0381,5.4213 8.3e-4,0.2655 -1.70833,1.2173 -3.79678,2.1161 -4.52396,1.9461 -14.4477,2.3416 -15.11487,0.6026 -0.75645,-1.9708 2.8411,-9.6745 6.32777,-13.5528 z m 215.03633,-2.9527 c 16.4854,-1.6292 20.61154,-0.2117 28.58225,9.8175 2.84879,3.5844 4.92649,6.7418 4.61713,7.0172 -0.30936,0.2748 -2.79415,1.2382 -5.52132,2.1401 -6.90491,2.2832 -12.2169,2.117 -20.08758,-0.6302 -6.39474,-2.2317 -6.52553,-2.3278 -7.77139,-5.7607 -1.6722,-4.6056 -4.98725,-10.2007 -6.56711,-11.0849 -0.8826,-0.4941 1.15046,-0.9457 6.74791,-1.499 z m -246.05561,1.703 c 4.25239,-1.98 7.95071,-2.2578 18.35767,-1.3782 l 5.76603,0.4878 -2.51553,3.7376 c -1.38368,2.0562 -2.92501,5.5683 -3.42517,7.806 l -0.91038,4.0669 -4.72559,1.4413 c -12.85478,3.9207 -15.23333,3.9584 -23.56342,0.3748 l -3.8191,-1.643 2.40476,-3.4959 c 3.68452,-5.3543 8.05074,-9.3581 12.43085,-11.3974 z m 223.4925,4.4831 c 1.80141,-3.492 3.72749,-6.3485 4.28156,-6.3485 2.25934,0 7.14498,5.369 9.69905,10.6586 1.45361,3.0103 2.38244,5.7345 2.06381,6.0522 -0.31788,0.3187 -3.0935,0.7057 -6.16773,0.8612 -4.51404,0.2278 -6.36084,-0.05 -9.60207,-1.4444 -2.20775,-0.9497 -3.90913,-2.11 -3.7814,-2.5787 0.12773,-0.4686 1.70601,-3.7083 3.50669,-7.2004 z m 54.04556,-4.097 c 0,-0.6287 3.3582,0.7425 8.30545,3.3913 1.39359,0.7457 4.7833,3.2643 7.53205,5.5959 2.74866,2.3324 6.92102,5.5876 9.27113,7.2343 l 4.27471,2.9935 -2.57175,1.1104 c -1.41444,0.6109 -4.99578,2.1554 -7.9584,3.432 -8.81256,3.7976 -13.80435,4.9619 -19.9467,4.6518 -3.86301,-0.1954 -6.22238,-0.7372 -7.8014,-1.7914 l -2.26313,-1.5121 4.07075,-0.5163 c 3.89069,-0.4941 19.39957,-7.2181 19.39957,-8.4109 0,-0.2985 -0.56017,-1.0081 -1.24586,-1.576 -0.68486,-0.5687 -2.89418,-3.4782 -4.91029,-6.4655 -2.01612,-2.9872 -4.22544,-5.8968 -4.91029,-6.4655 -0.68568,-0.5679 -1.24586,-1.3204 -1.24586,-1.6714 z m -295.20234,1.8232 c 4.02917,-2.1562 5.41665,-2.2693 4.39317,-0.3563 -0.4155,0.7757 -1.322,1.8816 -2.01611,2.4571 -0.69337,0.5756 -2.32167,2.6248 -3.61829,4.5532 -1.29589,1.9293 -3.23271,4.4564 -4.30315,5.616 -1.07117,1.1589 -1.79909,2.2446 -1.6183,2.4109 1.84068,1.6991 13.96523,6.7734 17.92901,7.5036 l 5.07729,0.9358 -2.24313,1.3643 c -6.96873,4.2376 -15.1472,3.4805 -28.31059,-2.621 -4.75486,-2.204 -8.63009,-4.1801 -8.61166,-4.3917 0.0639,-0.7256 20.15139,-15.7744 23.32185,-17.472 z m -26.5553,11.1232 c 0.58093,-0.7402 1.18733,-1.3466 1.34664,-1.3466 0.63326,0 0.22618,0.6318 -1.0558,1.6376 -1.22039,0.9565 -1.24735,0.9296 -0.29083,-0.2909 z m 257.56743,7.6777 c 1.55902,-2.0008 3.07876,-3.6376 3.37738,-3.6376 0.85879,0 2.0777,3.1612 3.0796,7.9876 1.00348,4.8333 0.66262,5.9484 -1.36432,4.4678 -0.72023,-0.5263 -2.28778,-1.5529 -3.48362,-2.2816 -4.75403,-2.8965 -4.67937,-2.5948 -1.60903,-6.5363 z m -167.67739,-0.1486 c 0.71328,-1.4959 1.55439,-2.7195 1.86912,-2.7195 0.31547,0 1.63283,1.5706 2.92798,3.4898 2.10382,3.1165 2.21237,3.5421 1.01653,3.9753 -0.73645,0.2671 -2.63714,1.496 -4.22469,2.7311 l -2.88575,2.2454 v -3.5013 c 0,-1.926 0.58324,-4.7248 1.29662,-6.2208 z m -11.94161,1.1442 c 7.0457,-2.7102 7.08802,-2.714 5.63366,-0.4955 -1.26893,1.9369 -1.78992,10.3169 -0.82952,13.3427 0.46172,1.4552 0,1.9615 -3.32663,3.6476 -3.06645,1.5536 -4.99726,1.9576 -9.36116,1.9576 h -5.49825 l 0.511,-2.8857 c 0.64789,-3.6599 3.81994,-10.3124 5.74907,-12.0592 0.8134,-0.7356 4.01768,-2.3139 7.12192,-3.5074 z m -101.70496,-0.6809 c 9.32892,-0.9549 10.00377,-0.9619 10.00377,-0.1046 0,0.4232 -0.37632,0.7695 -0.83647,0.7695 -1.2266,0 -10.37232,8.9517 -14.14993,13.8513 -3.8191,4.9526 -6.06463,9.1527 -7.25428,13.5705 l -0.85417,3.1735 -5.79835,0.8618 c -10.59017,1.5752 -14.9726,1.0635 -23.58963,-2.7564 -3.78761,-1.6783 -4.76561,-2.5795 -7.15499,-6.5909 -1.52216,-2.5556 -2.59407,-5.0988 -2.38169,-5.6521 0.60788,-1.5845 6.56017,-5.6845 11.61587,-8.0007 7.28345,-3.3367 26.68386,-7.7176 40.39976,-9.122 z m 84.73319,0.3424 c 4.4155,-1.1874 6.83952,-1.4745 6.83952,-0.8081 0,0.224 -1.23428,1.4914 -2.74255,2.8165 -3.57828,3.1412 -6.19616,8.4178 -7.28892,14.6917 l -0.8788,5.048 -3.97147,1.0149 c -3.83216,0.9797 -16.29377,1.2759 -17.16182,0.4087 -0.23314,-0.2339 0.69484,-2.524 2.06233,-5.0904 4.6025,-8.6347 13.30809,-15.4372 23.1418,-18.0813 z m 208.84767,0.13 c -0.30705,-0.7403 -0.43478,-1.3444 -0.28398,-1.3405 1.36822,0.029 10.42234,3.2412 11.9406,4.2362 2.2686,1.4866 5.35052,7.8044 6.09539,12.4946 l 0.51943,3.2705 h -5.67748 c -4.42402,0 -6.27239,-0.3632 -8.37084,-1.636 -3.58134,-2.1708 -3.73833,-2.524 -2.84795,-6.4139 0.72412,-3.1651 0.27547,-6.6311 -1.37516,-10.6079 z m 14.2446,-0.7696 c -0.0254,-0.8241 3.10424,-0.7134 7.83215,0.277 5.69526,1.192 13.87289,5.6406 17.39578,9.4621 3.70054,4.0153 8.90787,12.7855 8.0776,13.6051 -0.3402,0.3363 -3.24123,0.848 -6.44708,1.1358 -4.36621,0.3933 -6.90564,0.2117 -10.11918,-0.7225 l -4.29009,-1.2466 -1.25892,-5.6607 c -1.53827,-6.9133 -5.28114,-13.4019 -8.68937,-15.0625 -1.36591,-0.6657 -2.49164,-1.4698 -2.5009,-1.7876 z m 89.96442,6.992 c -6.48162,-6.4824 -7.36348,-7.6398 -5.55743,-7.2981 1.18038,0.2239 4.91639,0.6271 8.3023,0.8965 7.59902,0.6048 27.80969,4.4755 34.0328,6.5186 2.53479,0.8326 5.95683,2.3016 7.60439,3.2658 4.58407,2.6818 11.04883,7.0857 11.03494,7.5167 -0.007,0.2116 -1.47288,2.4625 -3.25661,5.0019 -2.4871,3.5397 -4.23164,5.1003 -7.47667,6.6879 -7.44972,3.6451 -16.50003,4.3908 -25.48265,2.0984 -2.34159,-0.5971 -2.988,-1.2497 -4.08381,-4.12 -2.27472,-5.9561 -7.18268,-12.634 -15.11718,-20.5677 z m -23.0339,-1.0843 c 4.91177,-1.6891 5.04338,-1.6945 7.29809,-0.2939 2.50942,1.5591 13.43432,13.7205 13.46202,14.9856 0.0269,1.2382 -8.47088,5.5821 -13.46508,6.8826 -6.09771,1.5883 -12.7856,1.4898 -19.67661,-0.2901 -9.59975,-2.4794 -11.89604,-3.796 -14.87867,-8.5309 l -2.66558,-4.2324 5.27503,-0.4924 c 5.66747,-0.5287 11.63356,-2.2371 16.5708,-4.7449 1.69286,-0.8595 5.32885,-2.337 8.07991,-3.2836 z m -359.63519,2.0391 c 4.48636,-3.9491 5.61293,-3.9075 16.51161,0.6134 9.12117,3.7829 17.41811,5.8159 21.50118,5.2681 3.05422,-0.4094 3.10423,-0.3794 2.07696,1.2443 -0.57945,0.9157 -1.85375,2.9865 -2.83258,4.6017 -3.98758,6.5841 -22.54994,10.9488 -34.67912,8.1554 -3.43277,-0.791 -12.82329,-5.0496 -13.48119,-6.1145 -0.54249,-0.878 6.81562,-10.17 10.90333,-13.7683 z m -75.2996,-0.064 -1.31126,-2.304 h 6.97113 l -1.78992,2.2662 c -0.98421,1.2459 -1.96304,2.2824 -2.17468,2.3032 -0.21165,0.021 -0.97504,-0.9989 -1.69527,-2.2655 z m 514.1952,-1.9377 c 0,-0.2016 1.60061,-0.3663 3.5567,-0.3663 3.84069,0 3.83068,-0.1031 0.3955,4.0431 -1.04422,1.2604 -1.21122,1.1957 -2.53554,-0.9804 -0.77876,-1.2821 -1.41666,-2.4948 -1.41666,-2.6965 z m -335.23725,7.4888 c 2.91798,-2.6625 5.52826,-4.7402 5.80141,-4.6171 0.2724,0.1239 2.16922,2.0293 4.21386,4.2347 l 3.71759,4.01 -3.37896,4.4448 c -5.5706,7.3296 -9.90143,9.4543 -19.28417,9.462 -4.35853,0 -5.19426,-0.204 -5.19426,-1.2913 0,-2.6078 3.12971,-7.6036 5.93765,-9.4774 1.58523,-1.0581 5.26892,-4.1023 8.1869,-6.7656 z m 152.95043,-0.8502 c 1.85523,-2.1216 3.48437,-3.873 3.61978,-3.8923 0.39402,-0.055 7.06811,4.5671 11.8314,8.1954 3.35274,2.5532 4.96178,4.5147 6.84637,8.3423 1.35516,2.7526 2.24933,5.2189 1.98694,5.4813 -0.2624,0.2624 -2.8549,0.4625 -5.76139,0.4441 -6.94418,-0.043 -12.06453,-2.2432 -16.66397,-7.1604 -5.69979,-6.0938 -5.82678,-6.8733 -1.85911,-11.4104 z m -137.21082,12.0407 c 1.52447,-2.01 2.85267,-3.6553 2.95113,-3.6553 0.0985,0 2.95808,2.0939 6.35473,4.6533 l 6.17542,4.6532 -3.24197,4.5441 c -3.68063,5.158 -8.41549,8.2015 -13.93448,8.958 l -3.54438,0.4863 v -5.0126 c 0,-5.7914 1.3082,-9.4443 5.23965,-14.627 z m 124.38447,-0.3677 c 2.13846,-1.79 4.08844,-3.2621 4.33389,-3.2706 0.59565,-0.022 4.79025,5.893 6.37316,8.9865 0.83952,1.6406 1.2605,4.4078 1.2605,8.2869 v 5.8245 l -2.11614,-0.4941 c -1.16436,-0.2724 -4.23701,-1.4875 -6.82951,-2.7018 -4.46709,-2.0916 -7.16194,-4.6718 -9.51204,-9.1073 -0.89807,-1.6952 -0.81721,-2.0053 0.80183,-3.0781 0.99042,-0.6556 3.54985,-2.6571 5.68832,-4.4462 z m -175.15497,2.459 c 1.48214,-1.0073 3.00421,-1.6398 3.38127,-1.4067 0.91955,0.5679 7.8968,0.4856 10.68399,-0.1262 l 2.23239,-0.4902 -2.81183,4.7203 c -4.09308,6.8695 -12.27303,15.9845 -17.63966,19.6535 -10.65167,7.2828 -23.97133,10.7118 -34.59762,8.9072 -7.62292,-1.2943 -8.02378,-1.6344 -6.17236,-5.2327 2.45403,-4.771 8.58396,-12.8101 12.71095,-16.6708 2.85796,-2.6733 3.56133,-3.7252 2.71023,-4.0515 -3.01422,-1.1566 -0.33474,-1.5474 8.32008,-1.2143 10.497,0.404 16.18762,-0.6941 21.18256,-4.0884 z m 219.44914,2.7182 -2.14542,-4.2324 7.41202,0.2732 c 5.53669,0.2039 7.90069,0.6187 9.34199,1.6399 4.98105,3.5304 14.5808,4.9949 23.7658,3.6267 3.53827,-0.5271 4.07234,-0.4479 3.6899,0.5494 -0.28157,0.7341 0.37327,1.7507 1.76992,2.7449 3.20733,2.2839 9.36885,10.3392 12.61471,16.4916 1.54291,2.9249 2.65799,5.4666 2.47635,5.6474 -0.58491,0.585 -6.08233,1.5806 -11.6067,2.1016 -9.88985,0.9334 -21.30102,-2.6326 -30.39599,-9.4989 -5.66368,-4.2763 -14.27376,-14.1185 -16.92249,-19.3435 z m -307.41143,-0.031 c 0.40096,-0.6478 0.66105,-0.5825 10.60017,2.6818 6.34473,2.0839 17.49192,4.2747 21.752,4.2747 1.39823,0 5.04033,-0.5256 8.09381,-1.1681 3.05348,-0.6418 5.70137,-1.018 5.88374,-0.8349 0.18311,0.1824 -3.21891,2.1561 -7.55975,4.3862 -5.39285,2.7704 -9.49898,5.5706 -12.96797,8.8426 -4.01379,3.786 -6.03991,5.0796 -9.67747,6.1769 -5.92839,1.7883 -16.11454,1.776 -22.12064,-0.028 l -4.43855,-1.332 2.51479,-4.7387 c 1.38285,-2.6064 4.71717,-7.078 7.4097,-9.9368 4.21164,-4.4724 4.69484,-5.2696 3.46287,-5.7106 -2.09772,-0.751 -3.3936,-1.8984 -2.95262,-2.6133 z m 399.54765,1.9953 c 3.7075,-1.469 7.34663,-2.6856 8.08687,-2.7025 2.03306,-0.048 1.6145,1.4437 -0.64716,2.304 l -1.99462,0.758 3.79372,4.1508 c 2.08697,2.2832 5.23975,6.9295 7.00652,10.3254 3.63135,6.9803 4.00379,6.3016 -4.3301,7.8845 -6.18079,1.1743 -18.04905,0.5609 -22.10443,-1.1428 -1.69295,-0.711 -5.15573,-3.3027 -7.69516,-5.7598 -5.59671,-5.4151 -7.91597,-6.991 -13.62892,-9.2634 -5.17351,-2.0569 -7.87216,-4.4748 -4.07001,-3.6468 9.57207,2.0847 13.90679,2.2948 21.34724,1.0343 4.12299,-0.698 10.52931,-2.4717 14.23606,-3.9415 z m -277.21247,5.1038 c 2.11614,-0.8381 4.0753,-1.559 4.3539,-1.6029 0.45867,-0.071 -2.01463,9.0587 -2.57712,9.5135 -3.44509,2.7872 -7.87448,5.2674 -11.64124,6.5171 -4.64788,1.5429 -20.53615,3.99 -20.52614,3.1619 0.0107,-0.9026 2.91418,-4.6725 7.68979,-9.9845 2.75108,-3.0603 5.08812,-5.796 5.19353,-6.0784 0.10615,-0.2833 3.2227,-0.3994 6.92566,-0.2586 5.34043,0.2031 7.53049,-0.059 10.58165,-1.2682 z m 158.90587,-1.249 c 0,-0.7156 0.95503,-0.5071 5.36895,1.1705 2.93344,1.115 6.39085,1.6636 11.3681,1.8053 6.33778,0.18 7.37738,0.414 9.12729,2.053 2.58555,2.4201 9.64282,12.9764 9.17879,13.7282 -0.19858,0.3209 -3.88764,0.099 -8.19847,-0.494 -13.52509,-1.86 -21.31575,-6.1431 -24.88014,-13.6782 -1.08044,-2.284 -1.96461,-4.3471 -1.96461,-4.5848 z m -295.25084,3.4636 c 0.34632,-0.026 -1.08349,3.1551 -3.17731,7.0696 -2.09391,3.9146 -3.93607,7.5506 -4.09233,8.0784 -0.22007,0.7411 -7.34116,-7.4566 -11.55122,-13.2981 -0.38707,-0.5371 1.84912,-0.7033 6.88564,-0.5117 4.1016,0.1554 8.32388,-0.071 9.382,-0.5033 z m 436.21751,0.751 c -0.13699,-0.3994 0.99495,-0.3609 2.62325,0.089 1.57523,0.4347 6.05843,0.6725 9.96219,0.5278 6.29008,-0.2324 6.998,-0.127 6.22543,0.9265 -2.18543,2.9796 -10.88331,13.0434 -11.24343,13.0087 -0.35086,-0.034 -6.92566,-12.6778 -7.56744,-14.5523 z m -51.67106,7.6653 c -3.13351,-5.2959 -1.25355,-4.9919 3.56902,0.5771 6.73643,7.7806 10.2508,15.856 10.2508,23.5558 v 3.0319 l -8.03611,-0.4548 c -4.68169,-0.2655 -10.38307,-1.1482 -13.65893,-2.1147 -5.46509,-1.6129 -10.62471,-4.1623 -10.62471,-5.2496 0,-0.2947 2.85647,-0.9373 6.34852,-1.4282 6.50699,-0.9142 19.04557,-4.664 19.04557,-5.6968 0,-0.3163 -1.03885,-2.3301 -2.30852,-4.4748 -1.26966,-2.1439 -3.33274,-5.6298 -4.58555,-7.746 z m -337.10553,2.0891 c 2.24155,-2.4478 4.23923,-4.2877 4.43855,-4.0877 0.44097,0.4402 -5.74056,11.7798 -6.76635,12.4139 -3.29125,2.0346 6.39854,5.8229 19.04252,7.4451 3.88912,0.4994 6.89407,1.1928 6.67863,1.5422 -0.80952,1.3104 -8.13993,4.5123 -12.8094,5.5951 -5.175,1.1997 -19.28953,1.9076 -20.19603,1.0127 -0.96272,-0.9503 1.06655,-9.9352 3.33663,-14.7771 1.21049,-2.581 4.03464,-6.6956 6.27545,-9.1442 z m 228.57421,-3.4998 c -7.3e-4,-0.1415 0.25703,-0.1238 0.57482,0.039 7.97303,4.0861 12.83246,5.0042 18.02599,3.4059 1.98536,-0.611 2.0777,-0.5064 2.59482,2.9395 0.49405,3.2967 0.0862,9.1543 -0.92493,13.2727 -0.41244,1.6814 -0.48636,1.6669 -6.30545,-1.2689 -3.23818,-1.6328 -6.64641,-3.7845 -7.57365,-4.781 -1.2943,-1.3898 -6.37696,-12.2115 -6.39159,-13.6074 z m -120.04734,2.9626 c 1.9046,-0.7656 3.70685,-1.4281 4.00463,-1.472 1.19964,-0.177 -3.20195,9.6344 -5.23428,11.6667 -2.62094,2.6209 -13.27418,8.634 -14.00367,7.9045 -0.95503,-0.955 -1.11508,-12.1407 -0.21627,-15.1395 0.87648,-2.9265 0.91566,-2.9511 2.76255,-1.7414 2.21923,1.4543 7.24271,0.9718 12.68705,-1.2182 z m -24.17121,5.9508 c 1.21354,-1.2228 1.47752,-0.3833 1.69527,5.3874 0.12393,3.2797 0.29703,7.3327 0.38475,9.0072 0.15458,2.9419 0.0438,3.0889 -3.30283,4.3878 -1.9046,0.7395 -5.64756,2.0092 -8.31777,2.8226 -4.32241,1.3166 -4.7934,1.3413 -4.30009,0.2293 0.30548,-0.6871 1.83754,-4.8811 3.40508,-9.3196 2.75024,-7.7861 2.97337,-8.1369 6.35621,-10.0038 1.9284,-1.0634 3.76371,-2.1931 4.07919,-2.5109 z m 171.14935,-0.5587 4.77876,2.4917 4.7795,2.4918 2.04149,6.6648 c 1.12268,3.6652 2.83415,7.9476 3.80372,9.5158 2.05232,3.3213 3.01041,3.3975 -8.64631,-0.6894 -6.12688,-2.1478 -7.13424,-2.7434 -7.08728,-4.1878 0.0308,-0.9265 0.11698,-4.9703 0.19238,-8.9857 z m -207.38547,5.0287 3.07812,-1.8707 0.24082,2.2593 c 0.2863,2.6818 0.54175,2.7088 10.90564,1.1528 4.01453,-0.6033 7.41044,-0.9857 7.54511,-0.8503 0.13541,0.1354 -1.31588,3.5237 -3.22585,7.529 -2.81109,5.8961 -4.39169,8.1338 -8.30008,11.7521 -8.27155,7.6583 -16.42917,10.3785 -31.12548,10.3785 h -9.3997 l 1.87607,-4.7887 c 2.46172,-6.2808 6.1254,-12.3338 9.93681,-16.4184 2.48794,-2.6656 4.2586,-3.6791 9.23427,-5.2851 3.38591,-1.0927 7.54132,-2.8295 9.23427,-3.8583 z m 242.01392,-1.7913 4.80951,2.5502 c 2.64558,1.4029 7.17194,3.1427 10.05917,3.8661 4.86415,1.2197 5.45972,1.6045 8.12076,5.2489 4.27239,5.8514 5.96608,8.8402 8.4078,14.841 l 2.20775,5.425 -6.23775,0.4402 c -21.59194,1.5237 -36.99542,-7.2058 -43.92802,-24.8947 -1.04339,-2.6634 -1.79067,-4.9504 -1.65905,-5.0812 0.13079,-0.1308 1.42741,0.1047 2.88028,0.5241 1.45361,0.4194 5.49898,0.9842 8.99104,1.2543 l 6.34852,0.4924 z m -338.58859,3.6613 c 0,-0.5717 0.66484,-0.7695 1.73139,-0.5148 0.95271,0.227 3.88458,0.8265 6.5171,1.3329 4.25934,0.8187 4.70337,1.0735 4.04001,2.3131 -0.41022,0.7665 -0.7457,2.9742 -0.7457,4.9065 0,1.9323 -0.28935,3.5136 -0.64336,3.5136 -0.99106,0 -10.89943,-10.5007 -10.89943,-11.5512 z m 30.01132,0.4417 c 3.79372,-1.4352 3.90995,-1.4128 2.99957,0.5856 -0.44792,0.9842 -1.21974,3.8407 -1.71453,6.3485 l -0.90038,4.5602 -6.04306,0.2263 -6.0438,0.2262 0.5525,-4.8433 c 0.30315,-2.6641 0.70569,-5.1027 0.89417,-5.4205 0.18858,-0.3178 1.96693,-0.5963 3.95229,-0.6202 1.98536,-0.024 4.82184,-0.5026 6.30314,-1.0628 z m 406.88336,-1.0912 c 0.52943,-0.062 0.96189,0.1394 0.96189,0.4464 0,0.6903 -10.1592,10.9849 -10.84025,10.9849 -0.27157,0 -0.70866,-1.4721 -0.97263,-3.2705 -0.26324,-1.7983 -0.68337,-3.9984 -0.93345,-4.8879 -0.42088,-1.4937 -0.0231,-1.6776 5.18352,-2.3894 z m -31.74585,1.8708 c -0.55175,-1.2582 -0.42709,-1.3844 0.8311,-0.8434 0.81415,0.3501 3.84448,0.7972 6.73327,0.9935 2.95262,0.2 5.36811,0.738 5.51511,1.2282 0.14468,0.4794 0.4394,2.8625 0.65568,5.2966 l 0.39244,4.4247 h -11.88439 l -0.7972,-4.8095 c -0.43782,-2.6448 -1.08887,-5.4759 -1.44593,-6.2901 z m -118.25273,13.2173 c -2.35474,-6.6864 -2.70179,-8.2793 -1.62293,-7.4459 0.75497,0.5825 2.38327,1.873 3.61756,2.8672 3.47593,2.7996 19.2864,10.4648 27.12938,13.1527 3.88143,1.3297 8.60777,2.4855 10.50236,2.5679 l 3.44361,0.15 3.82911,10.0322 c 3.6345,9.5221 6.9126,21.6366 6.08001,22.4692 -0.21165,0.2117 -1.16269,-0.031 -2.11309,-0.5402 -0.95039,-0.5086 -5.45203,-1.9015 -10.00377,-3.0958 -12.07064,-3.1664 -16.76854,-5.8128 -25.02398,-14.0937 -8.11761,-8.1438 -11.46739,-13.6559 -15.83824,-26.0636 z m -135.41625,-5.2311 c 1.54438,-1.1365 2.88101,-2.0116 2.97031,-1.9446 0.0886,0.067 -0.34085,2.2755 -0.95493,4.9065 -3.30588,14.1699 -16.75548,30.9508 -30.20287,37.681 -3.65747,1.8307 -9.28576,3.7991 -13.76054,4.8133 -4.16384,0.9434 -8.45549,2.3393 -9.53742,3.1027 l -1.96693,1.3875 1.44519,-6.2947 c 1.80373,-7.8552 3.84142,-13.859 7.26502,-21.4027 l 2.66558,-5.873 3.90765,-0.5186 c 9.45591,-1.2544 29.81969,-9.7145 38.16895,-15.8576 z m -90.68788,7.5727 c 1.05812,-0.1584 2.04001,-0.2162 2.18163,-0.1284 0.14153,0.088 -0.99505,2.7986 -2.52637,6.0245 -1.53059,3.2258 -3.06266,5.6922 -3.40434,5.4805 -0.70949,-0.4386 0.40021,-9.7306 1.2605,-10.5501 0.31019,-0.2963 1.43055,-0.668 2.48867,-0.8265 z m 315.9777,3.7314 -2.00147,-4.5071 2.11003,0.521 c 2.95956,0.7311 3.2089,1.1151 4.03917,6.2154 0.79266,4.8734 -0.12615,7.5275 -1.43204,4.1339 -0.39244,-1.0212 -1.61441,-3.8845 -2.7156,-6.3632 z m -237.80954,63.8363 c -0.45394,-3.716 -3.18398,-3.3359 -1.73806,-3.3359 1.63943,0 6.79279,-3.6452 11.45607,-7.2331 0.43913,1.7114 0.9431,3.4209 1.51156,5.1252 0.37217,3.9536 1.22969,7.8846 2.82008,11.7749 -5.84551,-0.6976 -13.56592,-2.3717 -14.04964,-6.3311 z m -114.57331,-64.395 c 2.45866,-0.2463 5.02578,-0.5055 5.70526,-0.5771 0.97578,-0.1024 1.33053,0.8857 1.68601,4.6895 0.24703,2.6509 0.70874,5.5074 1.02579,6.3485 0.62252,1.6529 -4.31092,-1.9423 -9.95607,-7.2543 l -2.93113,-2.7588 z m 16.54143,-0.1461 c 1.40212,-0.1724 4.03843,-0.3694 5.85837,-0.4371 l 3.30893,-0.1231 -0.46162,8.8495 -4.96725,0.5479 c -2.73171,0.3008 -5.02569,0.474 -5.09803,0.3847 -0.0715,-0.09 -0.36855,-2.1308 -0.66022,-4.5355 l -0.53017,-4.3724 2.55017,-0.314 z m 346.90951,3.9591 v -4.5363 l 11.15804,0.4016 -0.26935,4.6172 c -0.14847,2.5394 -0.38087,4.7341 -0.51711,4.8772 -0.13541,0.1431 -2.52479,0.016 -5.30893,-0.2817 l -5.06264,-0.5425 v -4.5355 z m 17.97978,1.0596 0.71569,-5.1943 5.7475,0.2563 c 3.16203,0.1408 5.44823,0.5486 5.08117,0.905 -1.50057,1.4598 -11.47045,9.2188 -11.85057,9.2226 -0.22544,0 -0.0877,-2.3331 0.30631,-5.1896 z m -310.78187,8.6087 c 2.11614,-0.962 4.08307,-1.7776 4.37085,-1.8123 0.28704,-0.035 -0.34779,1.4937 -1.41129,3.3967 -2.03306,3.6375 -1.93923,3.5905 -12.96333,6.4939 -4.25239,1.1205 -4.23238,1.1282 -4.23238,-1.7329 0,-2.5364 0.0308,-2.5579 5.19426,-3.5737 2.85648,-0.5625 6.92575,-1.8092 9.04189,-2.7718 z m 245.12954,0.7095 c -0.83879,-1.4213 -1.39202,-2.5848 -1.22891,-2.5848 0.16236,0 2.09613,0.9049 4.29777,2.0107 2.20163,1.1058 6.38548,2.3786 9.29734,2.8295 5.07191,0.7849 5.29504,0.9096 5.29504,2.9466 0,1.1688 -0.2824,2.3009 -0.62789,2.514 -1.01264,0.6264 -12.71473,-2.6195 -14.17298,-3.9307 -0.73413,-0.6603 -2.02074,-2.3633 -2.86028,-3.7853 z m -293.80168,2.2785 c 6.85026,-1.3628 6.95492,-1.3035 8.41854,4.7372 0.7156,2.9526 1.15195,5.5174 0.96958,5.6998 -0.46015,0.4602 -13.42812,-8.24 -13.42812,-9.0087 0,-0.3433 1.81837,-0.9858 4.04001,-1.4283 z m 101.02104,3.2826 c 0.82602,-1.1526 1.64073,-2.2041 2.29357,-2.9765 -1.37288,4.1809 -2.32282,8.4917 -2.81149,12.7574 -0.54431,4.7514 -0.53735,9.6207 0.0119,14.5276 -4.01818,4.8941 -7.77046,9.6198 -8.41886,10.6063 -1.1989,1.8214 -1.22502,1.7921 -3.25734,-3.6899 -1.12657,-3.0396 -2.42319,-7.8606 -2.88185,-10.714 l -0.83416,-5.1866 2.55175,-1.9237 c 4.79099,-3.6122 10.28767,-9.1304 13.34652,-13.4005 z m 142.02857,-1.812 c -0.98569,-3.3313 0.25323,-2.5225 2.30935,1.5067 1.50289,2.9465 7.40581,9.3673 12.71168,13.8275 2.36548,1.9884 2.38854,2.0761 1.71601,6.5255 -0.90576,5.9846 -2.7456,11.8206 -4.80025,15.2257 l -1.67452,2.7734 -4.88796,-6.6002 -4.88796,-6.5994 0.12847,-12.0722 c 0.0709,-6.6395 -0.20544,-13.2034 -0.61483,-14.587 z m 94.98418,-0.8295 c 0.33316,-1.4013 0.81109,-1.7152 2.12772,-1.3998 0.93335,0.2239 3.08265,0.631 4.77561,0.905 5.38275,0.8695 5.37969,1.0226 -0.10161,5.0757 -5.59671,4.1377 -7.94765,5.592 -8.36547,5.1742 -0.24702,-0.2462 0.68411,-6.0507 1.56365,-9.7552 z m -323.60517,0.07 c 0,-0.7072 0.45014,-0.9489 1.21734,-0.6549 0.66947,0.2571 3.7676,0.4671 6.8849,0.4671 h 5.66747 l -0.12078,3.0358 -0.12161,3.0358 -5.29661,0.8934 c -2.92186,0.4933 -5.5628,0.5979 -5.88912,0.2347 -0.76877,-0.855 -2.34168,-5.5652 -2.34168,-7.0118 z m 308.76956,-0.3855 c 3.06802,-0.1463 6.22228,-0.3348 7.008,-0.4187 0.9403,-0.1008 1.28819,0.2147 1.01653,0.9211 -0.22628,0.591 -0.84573,2.5217 -1.37591,4.2916 -0.90723,3.0289 -1.10267,3.1928 -3.32505,2.7942 -1.29894,-0.2332 -3.83373,-0.6503 -5.63209,-0.9273 -3.19047,-0.4917 -3.2705,-0.5755 -3.2705,-3.4497 v -2.9458 z m -280.29743,9.8653 c 4.56861,-1.7292 4.39697,-2.2286 2.43088,7.0711 l -1.34284,6.3501 -2.75255,-3.6568 c -4.79488,-6.3708 -5.39127,-8.6001 -2.3301,-8.7017 0.71569,-0.024 2.51331,-0.5025 3.99462,-1.0627 z m 256.58536,0.055 c -0.46024,-1.162 -0.28861,-1.352 0.89492,-0.9973 0.80415,0.2416 3.1173,0.8442 5.13962,1.3397 3.2266,0.7911 3.61681,1.1012 3.19047,2.5364 -0.70717,2.3778 -3.89218,7.7537 -5.27503,8.9002 -1.39971,1.1628 -1.42592,1.1043 -2.59324,-5.7267 -0.43403,-2.5393 -1.04423,-5.2627 -1.35664,-6.0522 z m 16.30458,4.4063 c 0.30779,-1.2266 0.86723,-1.7598 1.56365,-1.4921 0.59714,0.2286 3.33663,0.8311 6.08845,1.3382 4.06769,0.7495 4.81877,1.1059 4.01462,1.9061 -1.0973,1.0927 -18.56848,10.9887 -18.89089,10.6994 -0.1116,-0.1 1.36054,-2.5132 3.27124,-5.3627 1.91071,-2.8496 3.6899,-6.0393 3.95304,-7.0889 z m -292.51274,-0.19 c 5.35663,-1.2228 6.32463,-1.0527 6.89333,1.212 0.57787,2.3039 2.74644,5.6959 5.68673,8.8964 1.06886,1.1643 1.7199,2.1161 1.44593,2.1161 -0.90417,0 -17.08021,-8.5887 -18.20298,-9.6636 -1.26661,-1.2151 -0.99883,-1.379 4.177,-2.5609 z m 53.48166,8.4847 2.69328,-1.4606 0.63641,3.0543 c 0.34937,1.6798 0.52248,3.1112 0.38475,3.1804 -0.13847,0.07 -3.24271,1.5752 -6.8987,3.3451 l -6.6463,3.2189 -0.47172,-2.3563 c -0.90112,-4.5063 -0.67873,-4.8949 3.56902,-6.2416 2.22154,-0.7041 5.25197,-1.9368 6.73327,-2.7402 z m 189.30481,1.6237 -0.003,-3.2696 3.65525,1.9307 c 2.00999,1.062 4.95419,2.4294 6.5409,3.0389 2.76034,1.0589 2.88575,1.2627 2.88575,4.6733 0,1.9614 -0.27703,3.4512 -0.61566,3.3096 -0.33863,-0.1408 -3.2805,-1.6413 -6.53785,-3.3343 l -5.92145,-3.0781 z m -208.2258,4.4539 c 1.49131,-0.5548 1.62367,-0.2954 1.83994,3.6214 0.25397,4.5817 -0.0538,5.4289 -1.56134,4.297 -0.53943,-0.4048 -3.31505,-1.7037 -6.16846,-2.8865 -2.85343,-1.1828 -5.0219,-2.4186 -4.81952,-2.7464 0.20238,-0.3278 2.33316,-0.8411 4.7356,-1.1412 2.4017,-0.3001 5.09034,-0.8149 5.97377,-1.1443 z m 227.98012,3.9338 c -0.44709,-3.9577 -0.39938,-4.1009 1.23892,-3.7099 0.93725,0.2232 3.86912,0.8218 6.51395,1.3305 2.64566,0.5087 4.80951,1.1712 4.80951,1.4729 0,0.3009 -1.2982,0.9388 -2.88575,1.4175 -1.58671,0.4786 -4.24702,1.5667 -5.91144,2.4185 -1.66368,0.8519 -3.08729,1.4675 -3.16268,1.3683 -0.0754,-0.099 -0.34622,-2.0331 -0.60251,-4.2978 z m -210.02723,4.6486 c 3.2766,-1.7106 6.04843,-3.0188 6.1592,-2.9072 0.76414,0.7641 3.82604,11.2681 3.36738,11.552 -0.77562,0.4787 -15.48424,-4.2331 -15.48424,-4.9603 0,-0.3162 2.68105,-1.9745 5.95766,-3.6844 z m 186.17752,2.1994 c 1.55828,-2.9834 2.96957,-5.4243 3.13583,-5.4243 0.76802,0 10.96029,6.9633 10.95797,7.4874 -7.4e-4,0.3255 -3.37739,1.5937 -7.50279,2.8172 -4.12541,1.2235 -7.93302,2.3862 -8.46245,2.5832 -1.67609,0.6249 -1.05042,-1.8699 1.87144,-7.4636 z m -16.15835,4.9048 c 2.84027,2.758 5.00884,5.1366 4.81952,5.2866 -1.08582,0.8612 -12.27154,3.2558 -12.27154,2.6279 0,-0.9649 1.61598,-10.617 1.99768,-11.9306 z"
           id="element-21"
           fill="#2b3c20"
           fill-rule="evenodd"
           stroke="none"
           stroke-width="0"
           stroke-linecap="butt"
           stroke-linejoin="miter" />
      </g>
    </g>
  </g>
</svg>
